<?xml version="1.0" encoding="utf-8"?>
<!-- Generator: Adobe Illustrator 25.4.1, SVG Export Plug-In . SVG Version: 6.00 Build 0)  -->
<svg version="1.1" id="Capa_1" xmlns="http://www.w3.org/2000/svg" xmlns:xlink="http://www.w3.org/1999/xlink" x="0px" y="0px"
	 viewBox="0 0 141.73 85.04" style="enable-background:new 0 0 141.73 85.04;" xml:space="preserve">
<style type="text/css">
	.st0{fill:#FFFFFF;}
	.st1{fill-rule:evenodd;clip-rule:evenodd;fill:#FFED00;}
	.st2{fill:none;}
	.st3{font-family:'Glamourousse';}
	.st4{font-size:10.5138px;}
</style>
<g>
	<path d="M44.36,35.96c0.99-0.49,1.98-0.98,2.97-1.47c0.04,0.04,0.07,0.08,0.11,0.12c-0.07,0.35-0.14,0.71-0.22,1.1
		c0.6,0.02,0.72-0.33,0.83-0.73c0.05-0.18,0.18-0.41,0.33-0.49c2.69-1.38,5.39-2.73,8.09-4.09c0.59-0.3,1.18-0.59,1.88-0.93
		c0.14,0.48,0.29,0.91,0.38,1.36c0.21,0.98,0.37,1.97,0.58,2.95c0.07,0.3,0.01,0.43-0.26,0.56c-0.46,0.22-1.05,0.4-1.3,0.78
		c-0.24,0.37-0.1,0.98-0.17,1.47c-0.02,0.16-0.13,0.37-0.27,0.45c-0.65,0.35-1.32,0.67-1.9,0.95c0,0.89,0.07,1.76-0.02,2.62
		C55.27,42,54.53,43.1,53.47,44c-0.81,0.69-1.71,1.19-2.75,1.41c-0.67,0.14-1.35,0.25-1.93-0.27c-0.06-0.05-0.15-0.09-0.23-0.11
		c-0.73-0.19-1.45-0.37-2.2-0.55c-0.05,0.27-0.11,0.64-0.17,1.01c-0.14,0.82-0.67,1.27-1.43,1.45c-0.4,0.09-0.68,0.22-0.88,0.63
		c-0.18,0.37-0.56,0.63-0.88,0.97c0.62-0.06,1.09,0.23,1.15,0.83c0.05,0.47-0.14,0.97-0.22,1.46c-0.05,0-0.1,0-0.15,0
		c0.11,0.07,0.23,0.14,0.34,0.22c0.32,0.22,0.38,0.51,0.14,0.8c-0.82,0.96-1.75,1.8-2.99,2.19c-0.87,0.28-1.55-0.17-2.19-0.68
		c-0.12-0.09-0.22-0.21-0.3-0.28c-1.44,0.68-1.45,2.05-1.61,3.31c-0.19,1.59-0.3,3.18-0.46,4.77c-0.01,0.15-0.09,0.29-0.16,0.48
		c-0.42-0.19-0.83-0.34-1.2-0.55c-1.92-1.09-3.86-1.04-5.76-0.03c-1.14,0.61-2.2,1.38-3.29,2.07c-0.34,0.21-0.68,0.42-1.07,0.67
		c-0.25-0.29-0.49-0.58-0.74-0.88c-0.5,0.29-0.94,0.54-1.36,0.79c-0.41,0.25-0.58,0.18-0.64-0.31c-0.06-0.54-0.05-1.08-0.14-1.61
		c-0.05-0.29-0.2-0.63-0.41-0.81c-0.83-0.69-1.44-1.46-1.38-2.61c0.01-0.23-0.08-0.47-0.13-0.74c-0.14,0.02-0.29,0.04-0.51,0.07
		c-0.49-1.56-0.99-3.1-1.46-4.65c-0.28-0.91-0.53-1.82-0.77-2.74c-0.14-0.51-0.46-0.58-0.91-0.47c-0.6,0.15-0.62,0.08-0.82-0.5
		c-0.67-1.91-0.89-3.9-0.9-5.89c-0.01-1.89,0.26-3.77,1.36-5.39c0.73-1.09,1.71-1.86,3.07-1.87c0.54,0,1.09,0.26,1.63,0.44
		c0.17,0.06,0.31,0.2,0.51,0.34c0.44-0.62,0.86-1.2,1.25-1.76c0.95,0.62,1.84,1.2,2.74,1.78c0.05-0.05,0.09-0.1,0.14-0.15
		c-0.16-0.19-0.28-0.45-0.49-0.55c-1.54-0.76-3.09-1.49-4.64-2.23c-1.08-0.51-2.25-0.9-3.22-1.57c-1.72-1.19-2.43-3.32-1.07-5.25
		c0.02-0.03,0.03-0.06,0.05-0.1c-1.13-1.73-0.82-3.68-0.79-5.58c0.01-0.38,0.26-0.8,0.51-1.11c0.25-0.3,0.3-0.57,0.28-0.94
		c-0.04-0.88-0.01-1.76-0.01-2.71c-0.47-0.13-0.28-0.58-0.19-0.94c0.54-2.3,1.45-4.43,2.95-6.27c2.22-2.72,5.02-4.49,8.52-5
		c4.68-0.69,8.63,0.82,11.86,4.21c1.89,1.98,3.04,4.39,3.62,7.07c0.16,0.75-0.31,0.83-0.71,0.92c0,0.68-0.2,1.39,0.04,1.89
		c0.42,0.88,0.29,1.6-0.03,2.43c-0.13,0.33,0.05,0.79,0.09,1.18c0.23,1.94,0.08,3.86-0.33,5.76c-0.12,0.56,0.07,1.02,0.37,1.44
		c0.79,1.09,1.27,2.33,1.23,3.65C43.76,34.13,44,35.02,44.36,35.96z M20.55,15.48c-0.09,0.47-0.17,0.91-0.26,1.35
		c-0.07,0.33-0.04,0.51,0.38,0.55c1.21,0.11,2.42,0.31,3.63,0.41c1.68,0.13,3.37,0.29,5.05,0.28c2.91-0.02,5.82-0.19,8.69-0.72
		c1.58-0.29,3.14-0.68,4.7-1.03C41.91,10.73,37.28,5.16,30.3,4.8C23.36,4.43,17.63,9.6,16.52,16.41c0.58,0.16,1.16,0.32,1.72,0.48
		c0.19-0.7,0.35-1.3,0.54-1.89c0.04-0.11,0.27-0.27,0.35-0.23C19.61,14.98,20.08,15.24,20.55,15.48z M16.59,18.34
		c0.04,0.46,0.05,0.9,0.12,1.34c0.02,0.12,0.2,0.27,0.32,0.3c1.52,0.33,2.29,1.09,2.51,2.66c0.21,1.46,0.35,2.94,0.5,4.41
		c0.04,0.39,0.18,0.63,0.56,0.75c0.54,0.18,1.08,0.37,1.59,0.62c1.43,0.72,2.84,1.47,4.26,2.2c0.11,0.05,0.32,0.04,0.4-0.03
		c0.8-0.67,1.59-1.35,2.38-2.04c1.04-0.9,2.03-1.87,3.12-2.7c1.73-1.32,3.62-1.28,5.33,0.09c0.9,0.72,1.7,1.55,2.55,2.33
		c0.38,0.35,0.76,0.71,1.18,1.11c0.11-0.26,0.21-0.43,0.24-0.61c0.19-1.04,0.44-2.08,0.52-3.13c0.09-1.23,0.06-2.47-0.02-3.7
		c-0.04-0.58-0.07-1.11,0.18-1.66c0.12-0.25,0.02-0.6,0.02-0.99c-0.08,0.13-0.12,0.16-0.13,0.21c-0.48,1.66-1.72,2.55-3.44,2.59
		c-1.67,0.04-2.85-0.85-3.97-1.91c-0.13-0.12-0.32-0.27-0.47-0.25c-0.42,0.06-0.88,0.12-1.24,0.32c-0.96,0.55-1.87,1.19-2.82,1.77
		c-1.03,0.63-2.12,1.04-3.34,1.26c-2.84,0.5-5.28-1.38-6.38-3.56c-0.19-0.37-0.4-0.57-0.78-0.65C18.74,18.84,17.7,18.6,16.59,18.34z
		 M33.99,47.67c-0.39,0.2-0.7,0.35-1.01,0.51c-1.26,0.66-2.5,1.35-3.77,1.99c-0.89,0.44-0.9,0.4-1.31-0.51
		c-0.52-1.13-1.04-2.27-1.6-3.38c-0.17-0.33-0.54-0.57-0.19-0.99c0.24-0.28,0.44-0.66,0.74-0.82c1.12-0.59,2.27-1.11,3.42-1.65
		c0.37-0.17,0.58-0.43,0.55-0.85c0.02,0.15,0.04,0.3,0.06,0.49c0.69-0.33,1.35-0.63,2-0.97c0.12-0.06,0.26-0.31,0.22-0.41
		c-0.18-0.52-0.42-1.03-0.65-1.53c-0.13-0.28,0.18-1.05,0.47-1.13c0.43-0.11,0.88-0.21,1.3-0.35c0.75-0.26,1.49-0.55,2.26-0.84
		c-0.2-0.35-0.38-0.67-0.57-0.98c-0.07-0.1-0.2-0.23-0.3-0.22c-0.92,0.07-1.97-0.13-2.51,0.92c-0.19,0.36-0.54,0.4-0.82,0.57
		c-2.2,1.28-4.93,1.12-6.87-0.32c-0.78-0.58-1.64-1.02-2.5-1.55c-0.36,0.53-0.72,1.05-1.08,1.57c1.16,1.38,1.91,3.68,2.18,5.47
		c0.1,0.62,0.12,1.24,0.16,1.87c0.07,0.95,0.42,1.97-0.75,2.62c0.85,1.96,1.68,3.88,2.51,5.79c0.12,0.27,0.39,0.53-0.01,0.8
		c-0.05,0.03-0.03,0.22,0.02,0.31c0.1,0.2,0.23,0.37,0.34,0.55c1.48-0.96,2.95-1.92,4.42-2.87c0-0.21,0.04-0.44,0.18-0.54
		c0.82-0.56,1.66-1.1,2.51-1.61c0.15-0.09,0.49-0.14,0.55-0.06c0.32,0.41,0.59,0.09,0.85-0.02c0.42-0.17,0.84-0.34,1.22-0.58
		c0.31-0.2,0.56-0.5,0.83-0.76c-0.04-0.04-0.08-0.09-0.12-0.13c-0.49,0.28-0.98,0.56-1.47,0.85c-0.35,0.21-0.62,0.26-0.79-0.23
		C34.36,48.32,34.16,48.01,33.99,47.67z M16.36,49.59c0.64-0.05,1.3-0.05,1.95-0.16c1.82-0.3,3.39-1.14,4.8-2.32
		c0.56-0.47,0.96-0.98,0.84-1.78c-0.07-0.43-0.05-0.87-0.11-1.3c-0.14-0.96-0.23-1.93-0.46-2.86c-0.34-1.33-0.81-2.61-1.71-3.7
		c-0.91-1.11-2.51-1.27-3.67-0.56c-0.91,0.55-1.55,1.35-1.9,2.35c-0.56,1.58-0.79,3.2-0.7,4.89C15.48,46,15.72,47.8,16.36,49.59z
		 M42.11,46.52c0.55,0.07,1.15,0.22,1.75,0.21c0.98-0.01,1.95-0.24,2.06-1.5c0.06-0.66,0-1.35-0.14-2c-0.1-0.43-0.01-0.63,0.31-0.85
		c0.84-0.56,1.66-1.14,2.51-1.68c0.28-0.18,0.31-0.37,0.3-0.68c-0.02-0.62,0.01-1.24,0.1-1.86c0.03-0.24,0.22-0.53,0.42-0.67
		c0.16-0.11,0.46-0.02,0.72-0.02c0.36-0.96,0.67-1.16,1.44-0.84c0.93-1.49,1.27-1.49,2.24,0.04c1.75-0.91,3.49-1.81,5.23-2.72
		c-0.29-1.39-0.56-2.74-0.84-4.09c-1.16,0.57-1.27,0.97-0.62,2.03c0.01,0.01,0.04,0.03,0.04,0.04c-0.03,0.13-0.03,0.32-0.11,0.37
		c-0.35,0.22-0.73,0.39-1.11,0.58c-1.36,0.68-2.71,1.36-4.16,2.09c-0.26-0.56-0.5-1.09-0.76-1.68c-0.67,0.34-1.35,0.67-2.02,1.03
		c-0.07,0.04-0.15,0.17-0.13,0.25c0.1,0.49-0.24,0.67-0.59,0.85c-0.32,0.17-0.62,0.39-0.96,0.51c-0.37,0.13-0.45,0.34-0.31,0.67
		c0.15,0.33,0.05,0.5-0.28,0.63c-0.56,0.21-0.97,0.57-1.04,1.22c-0.01,0.12-0.16,0.26-0.27,0.32c-2.25,1.16-4.51,2.3-6.77,3.45
		c-0.73,0.37-1.46,0.75-2.19,1.12c0.02,0.04,0.04,0.08,0.07,0.13c3.45-1.75,6.91-3.5,10.36-5.25c0.02,0.04,0.05,0.08,0.07,0.11
		c-0.1,0.07-0.2,0.15-0.31,0.2c-3.23,1.65-6.46,3.3-9.7,4.95c-0.47,0.24-0.47,0.24-0.27,0.75c2.71-1.37,5.41-2.74,8.19-4.15
		c0,0.38,0.03,0.65-0.01,0.9c-0.03,0.15-0.14,0.35-0.27,0.42c-1.4,0.72-2.81,1.42-4.22,2.13c-1.16,0.59-2.3,1.18-3.47,1.78
		c0.07,0.25,0.14,0.47,0.21,0.7c-0.82,0.38-1.62,0.74-2.43,1.12c0.15,0.41,0.27,0.75,0.4,1.11c1.18-0.48,2.16-1.09,2.93-2.06
		c1.13-1.44,2.7-2.22,4.45-2.71c0.58-0.16,1.31,0.16,1.77-0.48c0.02-0.02,0.31,0.06,0.34,0.14c0.24,0.69,0.33,1.39-0.02,2.07
		c-0.27,0.52-1.06,1.04-1.43,0.85C42.82,45.69,42.51,46.32,42.11,46.52z M17.96,31.69c-0.16,0.57,0.07,0.79,0.45,0.96
		c1.01,0.46,2.01,0.95,3.01,1.42c1.78,0.83,3.61,1.53,5.18,2.77c0.95,0.75,2.1,0.36,2.53-0.79c0.2-0.54,0.24-1.15,0.35-1.72
		c0.12-0.67-0.07-1.21-0.64-1.6c-0.99-0.68-1.93-1.44-2.94-2.07c-2.28-1.42-4.75-2.43-7.32-3.21c-0.74-0.23-0.91-0.1-1.27,0.66
		c-0.47,1.01-0.33,1.99,0.28,2.92C17.75,31.26,17.87,31.52,17.96,31.69z M36.7,53.32c-0.26,0.17-0.4,0.23-0.51,0.34
		c-0.51,0.49-0.96,1.06-1.52,1.48c-0.47,0.34-1,0.92-1.68,0.27c-0.04-0.04-0.22,0.04-0.31,0.1c-1.28,0.91-2.56,1.84-3.85,2.75
		c-1.25,0.88-2.51,1.75-3.75,2.63c-0.3,0.21-0.53,0.16-0.72-0.11c-0.38-0.55-0.73-1.12-1.17-1.79c2.73-2.04,5.42-4.05,8.16-6.1
		c-0.12-0.22-0.29-0.54-0.48-0.89c-0.16,0.08-0.28,0.14-0.4,0.21c-1.59,1.05-3.19,2.07-4.75,3.16c-1.12,0.78-2.17,1.65-3.23,2.51
		c-0.15,0.13-0.27,0.42-0.25,0.62c0.26,2.1,1.42,3.63,3.1,4.84c4.82-3.01,9.09-6.71,13.16-10.59c-0.52-1.37-1.09-2.64-2.06-3.68
		c-0.69,0.33-1.37,0.65-2.04,0.97C35.22,51.21,35.99,52.3,36.7,53.32z M17.82,49.81c0.76,2.56,1.5,5.06,2.26,7.6
		c2.22-1.1,4.11-2.38,5.72-3.9c-0.88-2.08-1.74-4.09-2.6-6.13C21.65,48.73,19.87,49.54,17.82,49.81z M29.81,34.15
		c0.9-0.73,1.68-1.39,2.49-2.01c0.83-0.63,1.69-1.25,2.78-1.34c1.54-0.12,3.17,0.92,3.85,2.46c0.28,0.63,0.51,1.29,0.72,1.95
		c0.12,0.38,0.44,0.48,0.66,0.34c0.55-0.35,1.04-0.79,1.56-1.2c-0.91,0.12-1.45-0.01-1.67-0.61c-0.17-0.45-0.25-1-0.16-1.46
		c0.14-0.7,0.48-1.36,0.75-2.09c-1.4-0.85-2.79-1.86-4.46-2.3c-1.86-0.48-3.61-0.34-5.11,1.1c-0.76,0.73-1.63,1.37-2.46,2.03
		c-0.26,0.21-0.57,0.35-0.86,0.52C28.58,32.38,29.94,32.62,29.81,34.15z M36.23,53.09c-0.81-1.11-1.62-2.21-2.43-3.32
		c-0.55,0.28-1.03,0.51-1.49,0.78c-0.47,0.28-0.91,0.62-1.44,0.98c0.79,1.21,1.56,2.35,2.28,3.53c0.2,0.32,0.35,0.34,0.66,0.22
		C34.88,54.89,35.52,54.03,36.23,53.09z M39.72,46.66c-0.74,0.82-1.44,1.58-2.12,2.36c-0.05,0.06-0.04,0.24,0.01,0.32
		c0.61,1.06,1.24,2.11,1.85,3.17c0.19,0.34,0.47,0.39,0.8,0.28c0.49-0.16,0.98-0.31,1.45-0.52c0.12-0.05,0.25-0.29,0.22-0.41
		c-0.18-0.75-0.38-1.49-0.61-2.22C40.99,48.62,40.56,47.63,39.72,46.66z M31.32,59.56c1.86-0.27,3.49,0.36,5.1,0.88
		c0.22-1.99,0.44-3.93,0.66-5.87C35.2,56.2,33.31,57.84,31.32,59.56z M35.28,40.62c-2.79,1.4-5.53,2.78-8.28,4.16
		c0.33,0.5,0.65,0.99,1,1.52c2.53-1.29,5.04-2.57,7.49-3.82C35.42,41.84,35.36,41.28,35.28,40.62z M29.79,35.46
		c0.5-0.3,0.93-0.6,1.38-0.84c1.16-0.63,2.31-1.28,3.5-1.83c0.83-0.38,1.7-0.26,2.38,0.4c0.49,0.47,0.89,1.01,1.35,1.51
		c0.26,0.28,0.54,0.53,0.82,0.79c0.06-0.04,0.12-0.09,0.17-0.13c-0.24-0.66-0.45-1.33-0.73-1.97c-0.76-1.75-3.09-3.2-5.43-1.52
		c-0.95,0.68-1.82,1.46-2.77,2.13C29.96,34.34,29.69,34.74,29.79,35.46z M39.54,38.4c-0.24-0.45-0.46-0.84-0.68-1.24
		c-0.11-0.19-0.2-0.29-0.49-0.19c-0.93,0.33-1.89,0.58-2.82,0.9c-0.77,0.27-1.52,0.59-2.32,0.91c0.37,0.63,0.67,1.17,1,1.7
		c0.05,0.08,0.25,0.14,0.34,0.11c0.64-0.2,1.28-0.39,1.89-0.67C37.5,39.46,38.49,38.93,39.54,38.4z M18.82,27.13
		c0.01-0.07,0.05-0.17,0.04-0.27c-0.13-1.3-0.25-2.6-0.43-3.89c-0.12-0.84-0.38-1.62-1.31-1.97c-0.68-0.25-1.25,0.01-1.26,0.73
		c-0.01,1.22,0.05,2.43,0.16,3.65c0.04,0.43,0.28,0.85,0.45,1.26c0.04,0.11,0.19,0.22,0.31,0.23C17.44,26.97,18.1,27.04,18.82,27.13
		z M54.63,40.91c-0.16,0.06-0.29,0.09-0.41,0.15c-1.42,0.71-2.84,1.42-4.24,2.15c-0.25,0.13-0.56,0.32-0.66,0.56
		c-0.5,1.15-0.17,1.57,1.06,1.39c1.36-0.2,2.41-0.97,3.4-1.87C54.48,42.65,54.62,41.84,54.63,40.91z M40.65,31.21
		c0.3-0.04,0.51-0.09,0.71-0.09c0.55,0,1.05,0.32,1.11,0.75c0.09,0.69,0.32,1.39-0.16,2.03c0.5,0.02,0.63-0.78,1.21-0.43
		c0.09-1.39-0.5-3.05-1.58-4.4C41.52,29.77,41.11,30.45,40.65,31.21z M19.76,27.46c-0.02-0.19-0.04-0.31-0.05-0.43
		c-0.17-1.48-0.3-2.97-0.52-4.45c-0.16-1.1-0.7-1.96-1.89-2.21c-0.29-0.06-0.64-0.2-0.86,0.2c1.17,0.06,2.05,0.8,2.22,1.99
		c0.23,1.56,0.39,3.14,0.58,4.76C19.34,27.35,19.54,27.4,19.76,27.46z M36.14,35.96c0.62,1.16,0.62,1.16,1.89,0.78
		c0.13-0.04,0.27-0.08,0.39-0.13c0.07-0.03,0.16-0.07,0.2-0.14c0.13-0.25,0.25-0.51,0.38-0.79c-0.27-0.26-0.58-0.55-0.84-0.8
		C37.47,35.25,36.82,35.6,36.14,35.96z M17.49,27.27c-0.51-0.24-0.68-0.18-0.98,0.27c-0.4,0.6-0.59,1.26-0.54,1.97
		c0.08,1.15,0.65,2,1.63,2.61c-0.03-0.33-0.1-0.66-0.27-0.91C16.53,30.03,16.42,28.52,17.49,27.27z M43.59,34.76
		c-0.39,0.48-0.68,1.07-1.14,1.34c-0.49,0.29-1.16,0.29-1.82,0.43c0.2,0.35,0.37,0.68,0.54,0.98c0.99-0.5,1.93-0.96,2.88-1.44
		C43.9,35.64,43.75,35.21,43.59,34.76z M55.4,37.66c0.61-0.34,1.26-0.7,1.72-0.96c0.11-0.59,0.18-0.99,0.24-1.34
		c-0.92,0.41-1.83,0.82-2.67,1.19C54.93,36.92,55.14,37.26,55.4,37.66z M32.92,45.92c0.71-0.36,1.36-0.68,2.01-1.02
		c0.29-0.15,0.42-0.66,0.23-0.92c-0.21-0.29-0.5-0.23-0.71-0.03c-0.24,0.24-0.79,0.09-0.79,0.63c0,0.02-0.15,0.03-0.23,0.05
		c-0.27,0.06-0.53,0.12-0.81,0.18C32.73,45.22,32.82,45.55,32.92,45.92z M29.24,47.53c0.59-0.31,1.11-0.67,1.68-0.86
		c0.85-0.27,0.75-0.67,0.32-1.25c-0.72,0.37-1.44,0.73-2.15,1.12c-0.11,0.06-0.19,0.29-0.17,0.42
		C28.95,47.14,29.1,47.29,29.24,47.53z M43.19,33.71c-0.92,0.73-1.79,1.43-2.66,2.12c0.03,0.07,0.07,0.13,0.1,0.2
		c0.39-0.14,0.78-0.28,1.16-0.41c-0.05,0.09-0.11,0.19-0.18,0.32C42.64,35.72,43.46,34.64,43.19,33.71z M24.19,62.74
		c-0.45-0.43-0.9-0.86-1.36-1.3c-0.04,0.03-0.09,0.06-0.13,0.08c0.03,0.65,0.06,1.29,0.1,1.98C23.3,63.24,23.73,63,24.19,62.74z
		 M27.74,46.5c-0.34-0.52-0.67-1.02-1.02-1.55c-0.2,0.29-0.34,0.5-0.47,0.68c0.31,0.53,0.59,1.02,0.9,1.54
		C27.34,46.95,27.53,46.73,27.74,46.5z M32.74,55.08c-0.33-0.48-0.65-0.91-0.93-1.36c-0.3-0.49-0.52-0.27-0.78,0.01
		c0.41,0.59,0.81,1.15,1.21,1.72C32.41,55.33,32.55,55.22,32.74,55.08z M26.92,56.6c-0.26,0.16-0.47,0.28-0.21,0.64
		c0.76,1.08,0.77,1.1,1.57,0.62C27.82,57.44,27.38,57.03,26.92,56.6z M30.71,53.92c-0.33,0.14-0.37,0.36-0.18,0.62
		c0.32,0.46,0.65,0.92,0.99,1.41c0.2-0.14,0.34-0.23,0.5-0.33c-0.24-0.37-0.44-0.71-0.68-1.02C31.15,54.35,30.92,54.14,30.71,53.92z
		 M36.35,61.23c0.01-0.44,0.01-0.44-1.62-1.01c-1.64-0.58-3.89-0.5-4.45,0.21C32.49,59.44,34.44,60.16,36.35,61.23z M28.05,55.77
		c0.21,0.28,0.4,0.54,0.59,0.8c0.43,0.58,0.43,0.58,1.03,0.15C28.68,55.39,28.49,55.26,28.05,55.77z M27.72,55.99
		c-0.14,0.1-0.29,0.22-0.48,0.36c0.29,0.33,0.56,0.6,0.78,0.9c0.27,0.37,0.55,0.38,0.92,0.08C28.55,56.9,28.16,56.47,27.72,55.99z
		 M43.41,45.66c1.03,0.37,1.65-0.71,1.35-2.36c-0.12,0.09-0.23,0.16-0.33,0.24C44.91,44.23,44.86,44.33,43.41,45.66z M29.97,54.37
		c-0.33,0.56-0.29,0.74,0.39,1.37c0.14,0.12,0.42,0.09,0.64,0.12c0.01-0.05,0.02-0.1,0.03-0.15C30.68,55.27,30.34,54.84,29.97,54.37
		z M30.36,56.16c-0.37-0.37-0.73-0.75-1.1-1.1c-0.05-0.04-0.17-0.01-0.27,0c0.01,0.1-0.01,0.21,0.04,0.29
		c0.15,0.25,0.32,0.49,0.48,0.73C29.71,56.38,29.96,56.48,30.36,56.16z M26.18,57.2c-0.14,0.69,0.21,1.08,0.55,1.41
		c0.13,0.12,0.47,0.02,0.81,0.02C27.06,58.12,26.66,57.7,26.18,57.2z M25.03,60.26c-0.35-0.53-0.63-0.95-0.92-1.39
		c-0.13,0.09-0.25,0.17-0.42,0.28C24.15,59.5,23.95,60.49,25.03,60.26z M32.56,35.61c0,0.47,0,0.86,0,1.39
		c0.4-0.37,0.71-0.66,1.09-1.01C33.21,35.83,32.91,35.73,32.56,35.61z M26.66,59.02c-0.37-0.5-0.68-1-1.15-1.33
		c-0.05,0.04-0.1,0.08-0.15,0.12c0.27,0.47,0.53,0.94,0.81,1.43C26.35,59.16,26.48,59.1,26.66,59.02z M34.95,47.24
		c-0.31,0.14-0.47,0.22-0.64,0.3c0.2,0.41,0.38,0.78,0.6,1.22C35.46,48.2,34.8,47.79,34.95,47.24z M26.05,59.46
		c-0.35-0.5-0.67-0.95-1.03-1.47C24.9,58.64,25.53,59.53,26.05,59.46z M24.61,58.49c-0.07,0.04-0.15,0.08-0.22,0.13
		c0.25,0.43,0.49,0.87,0.76,1.3c0.01,0.02,0.21-0.07,0.35-0.12C25.18,59.33,24.89,58.91,24.61,58.49z M47.22,36.82
		c-0.08-0.19-0.14-0.34-0.23-0.57c-0.16,0.34-0.28,0.61-0.43,0.94c0.14-0.04,0.19-0.05,0.23-0.08
		C46.92,37.03,47.05,36.94,47.22,36.82z"/>
	<path class="st0" d="M20.55,15.48c-0.47-0.24-0.94-0.5-1.42-0.71c-0.07-0.03-0.31,0.12-0.35,0.23c-0.19,0.59-0.35,1.19-0.54,1.89
		c-0.56-0.16-1.14-0.32-1.72-0.48C17.63,9.6,23.36,4.43,30.3,4.8c6.98,0.36,11.61,5.93,12.44,11.52c-1.56,0.34-3.12,0.74-4.7,1.03
		c-2.87,0.53-5.78,0.69-8.69,0.72c-1.68,0.01-3.37-0.14-5.05-0.28c-1.21-0.1-2.42-0.3-3.63-0.41c-0.42-0.04-0.45-0.22-0.38-0.55
		C20.38,16.39,20.46,15.95,20.55,15.48z M23.15,8.46c-1.47,1.23-2.73,2.62-3.4,4.46C20.62,11.23,21.83,9.8,23.15,8.46z"/>
	<path class="st0" d="M16.59,18.34c1.11,0.25,2.16,0.49,3.21,0.73c0.37,0.08,0.59,0.28,0.78,0.65c1.1,2.18,3.54,4.06,6.38,3.56
		c1.21-0.21,2.31-0.62,3.34-1.26c0.94-0.58,1.86-1.22,2.82-1.77c0.36-0.21,0.82-0.26,1.24-0.32c0.14-0.02,0.34,0.13,0.47,0.25
		c1.12,1.07,2.3,1.95,3.97,1.91c1.72-0.04,2.96-0.93,3.44-2.59c0.01-0.05,0.05-0.09,0.13-0.21c0,0.38,0.1,0.74-0.02,0.99
		c-0.26,0.55-0.22,1.08-0.18,1.66c0.08,1.23,0.1,2.47,0.02,3.7c-0.07,1.05-0.33,2.09-0.52,3.13c-0.03,0.18-0.14,0.35-0.24,0.61
		c-0.43-0.4-0.8-0.75-1.18-1.11c-0.84-0.78-1.65-1.61-2.55-2.33c-1.71-1.37-3.59-1.41-5.33-0.09c-1.09,0.83-2.08,1.8-3.12,2.7
		c-0.79,0.69-1.58,1.37-2.38,2.04c-0.09,0.07-0.3,0.08-0.4,0.03c-1.42-0.73-2.83-1.48-4.26-2.2c-0.51-0.25-1.05-0.44-1.59-0.62
		c-0.38-0.13-0.52-0.36-0.56-0.75c-0.15-1.47-0.3-2.94-0.5-4.41c-0.22-1.57-0.98-2.33-2.51-2.66c-0.13-0.03-0.3-0.18-0.32-0.3
		C16.64,19.25,16.62,18.8,16.59,18.34z M24.11,26.48c0.16-0.77,0.32-1.39,0.4-2.02c0.02-0.14-0.16-0.4-0.3-0.46
		c-1.07-0.48-2.17-0.89-2.97-2.03c-0.03,0.33-0.05,0.5-0.05,0.66c-0.01,0.38,0.02,0.77-0.03,1.15c-0.1,0.78-0.07,0.88,0.64,1.27
		c0.11,0.06,0.2,0.14,0.3,0.2C22.76,25.65,23.41,26.05,24.11,26.48z"/>
	<path class="st0" d="M33.99,47.67c0.17,0.35,0.37,0.65,0.49,0.99c0.17,0.49,0.44,0.44,0.79,0.23c0.49-0.29,0.98-0.57,1.47-0.85
		c0.04,0.04,0.08,0.09,0.12,0.13c-0.27,0.26-0.52,0.56-0.83,0.76c-0.38,0.24-0.8,0.41-1.22,0.58c-0.27,0.11-0.54,0.42-0.85,0.02
		c-0.06-0.08-0.4-0.03-0.55,0.06c-0.85,0.52-1.69,1.06-2.51,1.61c-0.14,0.09-0.19,0.32-0.18,0.54c-1.47,0.95-2.94,1.91-4.42,2.87
		c-0.11-0.17-0.25-0.35-0.34-0.55c-0.04-0.09-0.06-0.28-0.02-0.31c0.4-0.27,0.13-0.53,0.01-0.8c-0.83-1.92-1.67-3.84-2.51-5.79
		c1.17-0.65,0.82-1.68,0.75-2.62c-0.05-0.62-0.07-1.25-0.16-1.87c-0.28-1.79-1.03-4.08-2.18-5.47c0.36-0.52,0.72-1.04,1.08-1.57
		c0.86,0.53,1.73,0.97,2.5,1.55c1.94,1.44,4.67,1.6,6.87,0.32c0.28-0.16,0.63-0.21,0.82-0.57c0.54-1.05,1.59-0.86,2.51-0.92
		c0.1-0.01,0.23,0.12,0.3,0.22c0.2,0.3,0.37,0.62,0.57,0.98c-0.77,0.29-1.51,0.58-2.26,0.84c-0.42,0.15-0.87,0.24-1.3,0.35
		c-0.29,0.08-0.6,0.85-0.47,1.13c0.23,0.5,0.46,1.01,0.65,1.53c0.04,0.1-0.1,0.35-0.22,0.41c-0.65,0.34-1.31,0.64-2,0.97
		c-0.02-0.18-0.04-0.34-0.06-0.49c0.03,0.42-0.18,0.68-0.55,0.85c-1.15,0.54-2.3,1.06-3.42,1.65c-0.31,0.16-0.5,0.54-0.74,0.82
		c-0.35,0.41,0.02,0.66,0.19,0.99c0.57,1.11,1.08,2.25,1.6,3.38c0.42,0.91,0.42,0.95,1.31,0.51c1.27-0.63,2.52-1.32,3.77-1.99
		C33.28,48.01,33.6,47.86,33.99,47.67z"/>
	<path class="st0" d="M16.36,49.59c-0.64-1.78-0.88-3.59-0.98-5.44c-0.09-1.7,0.14-3.31,0.7-4.89c0.36-1,1-1.8,1.9-2.35
		c1.15-0.71,2.76-0.55,3.67,0.56c0.89,1.09,1.37,2.37,1.71,3.7c0.24,0.93,0.33,1.91,0.46,2.86c0.06,0.43,0.04,0.87,0.11,1.3
		c0.13,0.8-0.28,1.31-0.84,1.78c-1.4,1.18-2.98,2.01-4.8,2.32C17.66,49.53,17,49.54,16.36,49.59z"/>
	<path class="st0" d="M42.11,46.52c0.4-0.19,0.71-0.83,1.46-0.45c0.37,0.19,1.16-0.32,1.43-0.85c0.35-0.68,0.26-1.39,0.02-2.07
		c-0.03-0.08-0.32-0.17-0.34-0.14c-0.46,0.64-1.18,0.32-1.77,0.48c-1.75,0.48-3.31,1.27-4.45,2.71c-0.77,0.98-1.75,1.58-2.93,2.06
		c-0.13-0.36-0.25-0.71-0.4-1.11c0.81-0.37,1.61-0.74,2.43-1.12c-0.07-0.23-0.14-0.46-0.21-0.7c1.16-0.6,2.31-1.19,3.47-1.78
		c1.41-0.71,2.82-1.41,4.22-2.13c0.13-0.07,0.24-0.27,0.27-0.42c0.04-0.25,0.01-0.52,0.01-0.9c-2.77,1.4-5.48,2.78-8.19,4.15
		c-0.2-0.51-0.2-0.51,0.27-0.75c3.23-1.65,6.47-3.3,9.7-4.95c0.11-0.06,0.21-0.14,0.31-0.2c-0.02-0.04-0.05-0.08-0.07-0.11
		c-3.45,1.75-6.91,3.5-10.36,5.25c-0.02-0.04-0.04-0.08-0.07-0.13c0.73-0.37,1.46-0.75,2.19-1.12c2.26-1.15,4.52-2.3,6.77-3.45
		c0.12-0.06,0.26-0.2,0.27-0.32c0.07-0.66,0.48-1.01,1.04-1.22c0.34-0.12,0.43-0.3,0.28-0.63c-0.15-0.33-0.06-0.53,0.31-0.67
		c0.34-0.12,0.64-0.34,0.96-0.51c0.35-0.18,0.68-0.36,0.59-0.85c-0.01-0.07,0.06-0.21,0.13-0.25c0.67-0.35,1.35-0.69,2.02-1.03
		c0.27,0.59,0.51,1.11,0.76,1.68c1.44-0.73,2.8-1.41,4.16-2.09c0.37-0.19,0.75-0.36,1.11-0.58c0.08-0.05,0.08-0.24,0.11-0.37
		c0-0.01-0.03-0.02-0.04-0.04c-0.66-1.06-0.54-1.46,0.62-2.03c0.28,1.36,0.56,2.7,0.84,4.09c-1.74,0.9-3.49,1.81-5.23,2.72
		c-0.97-1.53-1.31-1.53-2.24-0.04c-0.77-0.31-1.08-0.12-1.44,0.84c-0.26,0-0.56-0.09-0.72,0.02c-0.2,0.14-0.39,0.42-0.42,0.67
		c-0.08,0.61-0.11,1.24-0.1,1.86c0.01,0.31-0.02,0.5-0.3,0.68c-0.85,0.54-1.67,1.13-2.51,1.68c-0.32,0.21-0.41,0.42-0.31,0.85
		c0.15,0.65,0.2,1.34,0.14,2c-0.11,1.25-1.08,1.49-2.06,1.5C43.26,46.73,42.66,46.59,42.11,46.52z M47.06,40.91
		c0.6,0,1.02-0.4,1.01-0.96c-0.01-0.47-0.49-0.94-0.94-0.94c-0.48,0.01-0.94,0.5-0.94,1.02C46.19,40.6,46.51,40.92,47.06,40.91z"/>
	<path class="st0" d="M17.96,31.69c-0.1-0.18-0.21-0.43-0.36-0.66c-0.61-0.93-0.75-1.91-0.28-2.92c0.36-0.77,0.53-0.89,1.27-0.66
		c2.57,0.78,5.04,1.79,7.32,3.21c1.02,0.63,1.96,1.38,2.94,2.07c0.57,0.4,0.76,0.94,0.64,1.6c-0.11,0.58-0.14,1.18-0.35,1.72
		c-0.43,1.15-1.59,1.54-2.53,0.79c-1.57-1.24-3.41-1.94-5.18-2.77c-1.01-0.47-2-0.96-3.01-1.42C18.03,32.48,17.8,32.26,17.96,31.69z
		 M28.54,34.62c-0.16-0.42-0.24-0.79-0.42-1.09c-0.4-0.66-1.34-0.68-1.76-0.08c-0.42,0.6-0.38,1.81,0.08,2.38
		c0.42,0.53,1.05,0.59,1.47,0.05C28.18,35.51,28.33,35.04,28.54,34.62z"/>
	<path class="st0" d="M36.7,53.32c-0.72-1.02-1.48-2.11-2.28-3.25c0.67-0.32,1.34-0.64,2.04-0.97c0.97,1.04,1.54,2.31,2.06,3.68
		c-4.08,3.88-8.34,7.58-13.16,10.59c-1.68-1.2-2.84-2.74-3.1-4.84c-0.02-0.2,0.09-0.5,0.25-0.62c1.06-0.86,2.11-1.73,3.23-2.51
		c1.56-1.09,3.16-2.11,4.75-3.16c0.11-0.08,0.24-0.13,0.4-0.21c0.19,0.34,0.36,0.67,0.48,0.89c-2.74,2.05-5.43,4.06-8.16,6.1
		c0.43,0.67,0.79,1.24,1.17,1.79c0.18,0.26,0.41,0.32,0.72,0.11c1.24-0.89,2.5-1.75,3.75-2.63c1.29-0.91,2.56-1.84,3.85-2.75
		c0.09-0.06,0.27-0.14,0.31-0.1c0.68,0.65,1.22,0.07,1.68-0.27c0.56-0.42,1.01-0.98,1.52-1.48C36.3,53.55,36.45,53.49,36.7,53.32z"
		/>
	<path class="st0" d="M17.82,49.81c2.05-0.27,3.83-1.09,5.38-2.43c0.87,2.04,1.72,4.05,2.6,6.13c-1.61,1.53-3.51,2.8-5.72,3.9
		C19.33,54.87,18.58,52.37,17.82,49.81z"/>
	<path class="st0" d="M29.81,34.15c0.14-1.53-1.22-1.76-1.92-2.61c0.29-0.17,0.6-0.31,0.86-0.52c0.83-0.66,1.7-1.29,2.46-2.03
		c1.49-1.43,3.25-1.58,5.11-1.1c1.67,0.43,3.06,1.45,4.46,2.3c-0.27,0.73-0.6,1.39-0.75,2.09c-0.09,0.46-0.01,1.01,0.16,1.46
		c0.22,0.6,0.76,0.73,1.67,0.61c-0.52,0.41-1.01,0.85-1.56,1.2c-0.22,0.14-0.54,0.04-0.66-0.34c-0.21-0.66-0.44-1.32-0.72-1.95
		c-0.68-1.54-2.31-2.58-3.85-2.46c-1.09,0.09-1.95,0.7-2.78,1.34C31.49,32.76,30.71,33.42,29.81,34.15z"/>
	<path class="st0" d="M36.23,53.09c-0.71,0.93-1.35,1.8-2.42,2.2c-0.32,0.12-0.47,0.09-0.66-0.22c-0.72-1.18-1.49-2.32-2.28-3.53
		c0.53-0.36,0.97-0.7,1.44-0.98c0.46-0.27,0.94-0.5,1.49-0.78C34.61,50.88,35.42,51.98,36.23,53.09z"/>
	<path class="st0" d="M39.72,46.66c0.84,0.96,1.27,1.96,1.6,3c0.23,0.73,0.43,1.47,0.61,2.22c0.03,0.12-0.11,0.36-0.22,0.41
		c-0.47,0.2-0.97,0.35-1.45,0.52c-0.33,0.11-0.6,0.06-0.8-0.28c-0.61-1.06-1.24-2.11-1.85-3.17c-0.05-0.09-0.06-0.26-0.01-0.32
		C38.28,48.25,38.98,47.48,39.72,46.66z"/>
	<path class="st0" d="M31.32,59.56c1.98-1.72,3.88-3.36,5.76-4.99c-0.22,1.94-0.44,3.88-0.66,5.87
		C34.81,59.92,33.18,59.3,31.32,59.56z"/>
	<path class="st0" d="M35.28,40.62c0.07,0.65,0.14,1.21,0.21,1.86c-2.45,1.25-4.96,2.53-7.49,3.82c-0.35-0.53-0.67-1.02-1-1.52
		C29.75,43.4,32.49,42.03,35.28,40.62z M32.86,42.68l0.03,0c0.68,0.26,0.61-0.64,1.12-0.64c-0.39-0.17-6.19,2.74-6.36,3.13
		c0.05,0,0.11,0.03,0.15,0.01c1.63-0.75,3.13-1.79,4.9-2.25C32.77,42.91,32.81,42.77,32.86,42.68z"/>
	<path class="st0" d="M29.79,35.46c-0.1-0.72,0.17-1.11,0.68-1.47c0.95-0.67,1.83-1.45,2.77-2.13c2.34-1.68,4.67-0.23,5.43,1.52
		c0.28,0.64,0.49,1.31,0.73,1.97c-0.06,0.04-0.12,0.09-0.17,0.13c-0.27-0.26-0.56-0.51-0.82-0.79c-0.46-0.5-0.87-1.04-1.35-1.51
		c-0.69-0.66-1.55-0.77-2.38-0.4c-1.2,0.54-2.34,1.2-3.5,1.83C30.72,34.86,30.28,35.15,29.79,35.46z"/>
	<path class="st0" d="M39.54,38.4c-1.05,0.53-2.05,1.06-3.07,1.53c-0.6,0.28-1.25,0.47-1.89,0.67c-0.1,0.03-0.29-0.03-0.34-0.11
		c-0.33-0.53-0.64-1.07-1-1.7c0.8-0.32,1.55-0.65,2.32-0.91c0.93-0.32,1.89-0.57,2.82-0.9c0.28-0.1,0.38-0.01,0.49,0.19
		C39.08,37.56,39.3,37.95,39.54,38.4z M34.85,38.64c0.02,0.05,0.04,0.09,0.06,0.14c1.1-0.42,2.2-0.84,3.3-1.27
		c-0.02-0.06-0.04-0.11-0.07-0.17C37.05,37.78,35.95,38.21,34.85,38.64z"/>
	<path class="st0" d="M18.82,27.13c-0.72-0.09-1.38-0.16-2.04-0.25c-0.11-0.02-0.26-0.13-0.31-0.23c-0.18-0.41-0.41-0.83-0.45-1.26
		c-0.1-1.21-0.17-2.43-0.16-3.65c0.01-0.72,0.58-0.98,1.26-0.73c0.93,0.34,1.2,1.12,1.31,1.97c0.18,1.29,0.29,2.59,0.43,3.89
		C18.88,26.96,18.84,27.06,18.82,27.13z M16.16,23.26c0.13,0.44,0.2,0.86,0.36,1.23c0.21,0.48,0.57,0.53,0.86,0.1
		c0.46-0.68,0.62-1.44,0.34-2.23c-0.2-0.58-0.84-0.67-1.17-0.15C16.35,22.52,16.29,22.91,16.16,23.26z"/>
	<path class="st0" d="M54.63,40.91c-0.01,0.93-0.14,1.74-0.85,2.38c-0.99,0.9-2.04,1.67-3.4,1.87c-1.23,0.18-1.56-0.24-1.06-1.39
		c0.1-0.24,0.41-0.43,0.66-0.56c1.41-0.73,2.83-1.44,4.24-2.15C54.34,41,54.47,40.97,54.63,40.91z M53.35,42.77
		c0.08,0,0.15,0,0.23,0c0.05-0.02,0.1-0.03,0.15-0.05c-0.02-0.13-0.04-0.26-0.06-0.39l-0.01-0.02c0.13-0.2,0.25-0.41,0.38-0.61
		c-0.04-0.03-0.07-0.06-0.11-0.08c-0.27,0.17-0.55,0.33-0.82,0.51c-0.29,0.19-0.59,0.39-0.44,0.76c0.26-0.03,0.48-0.06,0.7-0.09
		L53.35,42.77z"/>
	<path class="st0" d="M40.65,31.21c0.46-0.76,0.87-1.44,1.28-2.13c1.08,1.35,1.67,3.01,1.58,4.4c-0.57-0.35-0.71,0.45-1.21,0.43
		c0.48-0.65,0.25-1.35,0.16-2.03c-0.06-0.43-0.56-0.75-1.11-0.75C41.15,31.12,40.95,31.17,40.65,31.21z"/>
	<path class="st0" d="M19.76,27.46c-0.22-0.06-0.42-0.11-0.51-0.14c-0.19-1.62-0.35-3.2-0.58-4.76c-0.18-1.19-1.05-1.94-2.22-1.99
		c0.23-0.4,0.57-0.26,0.86-0.2c1.19,0.25,1.72,1.11,1.89,2.21c0.22,1.48,0.35,2.97,0.52,4.45C19.72,27.16,19.74,27.27,19.76,27.46z"
		/>
	<path class="st0" d="M36.14,35.96c0.68-0.36,1.33-0.71,2.02-1.07c0.26,0.25,0.57,0.54,0.84,0.8c-0.13,0.28-0.25,0.54-0.38,0.79
		c-0.03,0.06-0.12,0.11-0.2,0.14c-0.13,0.05-0.26,0.09-0.39,0.13C36.75,37.13,36.75,37.13,36.14,35.96z"/>
	<path class="st0" d="M17.49,27.27c-1.07,1.26-0.95,2.77-0.16,3.94c0.17,0.25,0.24,0.58,0.27,0.91c-0.98-0.61-1.55-1.46-1.63-2.61
		c-0.05-0.72,0.14-1.37,0.54-1.97C16.81,27.09,16.98,27.03,17.49,27.27z"/>
	<path class="st0" d="M43.59,34.76c0.16,0.45,0.31,0.88,0.46,1.32c-0.96,0.48-1.89,0.95-2.88,1.44c-0.17-0.31-0.35-0.63-0.54-0.98
		c0.66-0.14,1.33-0.14,1.82-0.43C42.92,35.83,43.2,35.25,43.59,34.76z"/>
	<path class="st0" d="M55.4,37.66c-0.26-0.4-0.47-0.74-0.7-1.11c0.83-0.37,1.75-0.78,2.67-1.19c-0.06,0.35-0.13,0.75-0.24,1.34
		C56.66,36.96,56.01,37.32,55.4,37.66z"/>
	<path class="st0" d="M32.92,45.92c-0.1-0.37-0.19-0.69-0.3-1.1c0.28-0.06,0.54-0.12,0.81-0.18c0.08-0.02,0.22-0.03,0.23-0.05
		c0-0.54,0.55-0.39,0.79-0.63c0.21-0.2,0.5-0.26,0.71,0.03c0.19,0.26,0.06,0.77-0.23,0.92C34.29,45.24,33.63,45.56,32.92,45.92z"/>
	<path class="st0" d="M29.24,47.53c-0.14-0.24-0.29-0.39-0.32-0.56c-0.02-0.13,0.06-0.36,0.17-0.42c0.71-0.39,1.43-0.75,2.15-1.12
		c0.43,0.58,0.53,0.98-0.32,1.25C30.35,46.86,29.83,47.22,29.24,47.53z"/>
	<path class="st0" d="M43.19,33.71c0.27,0.93-0.56,2.01-1.59,2.23c0.08-0.13,0.13-0.23,0.18-0.32c-0.38,0.14-0.77,0.27-1.16,0.41
		c-0.03-0.07-0.07-0.13-0.1-0.2C41.4,35.14,42.28,34.44,43.19,33.71z"/>
	<path class="st0" d="M24.19,62.74c-0.46,0.25-0.89,0.49-1.39,0.77c-0.03-0.69-0.07-1.34-0.1-1.98c0.04-0.03,0.09-0.06,0.13-0.08
		C23.29,61.88,23.75,62.32,24.19,62.74z"/>
	<path class="st0" d="M27.74,46.5c-0.21,0.23-0.4,0.45-0.59,0.67c-0.31-0.52-0.59-1.01-0.9-1.54c0.13-0.18,0.27-0.39,0.47-0.68
		C27.07,45.48,27.39,45.97,27.74,46.5z"/>
	<path class="st0" d="M32.74,55.08c-0.19,0.14-0.33,0.25-0.5,0.37c-0.4-0.57-0.79-1.13-1.21-1.72c0.25-0.27,0.48-0.5,0.78-0.01
		C32.09,54.17,32.41,54.6,32.74,55.08z"/>
	<path class="st0" d="M26.92,56.6c0.46,0.43,0.91,0.84,1.36,1.26c-0.8,0.48-0.82,0.46-1.57-0.62C26.45,56.89,26.66,56.76,26.92,56.6
		z"/>
	<path class="st0" d="M30.71,53.92c0.21,0.22,0.44,0.43,0.63,0.68c0.24,0.31,0.44,0.65,0.68,1.02c-0.16,0.11-0.3,0.2-0.5,0.33
		c-0.34-0.49-0.67-0.95-0.99-1.41C30.34,54.28,30.39,54.06,30.71,53.92z"/>
	<path class="st0" d="M36.35,61.23c-1.91-1.08-3.86-1.8-6.06-0.8c0.56-0.71,2.81-0.79,4.45-0.21
		C36.35,60.79,36.35,60.79,36.35,61.23z"/>
	<path class="st0" d="M28.05,55.77c0.44-0.51,0.63-0.38,1.62,0.95c-0.59,0.43-0.59,0.43-1.03-0.15
		C28.45,56.31,28.26,56.05,28.05,55.77z"/>
	<path class="st0" d="M27.72,55.99c0.45,0.49,0.83,0.91,1.22,1.34c-0.36,0.3-0.65,0.29-0.92-0.08c-0.22-0.3-0.49-0.57-0.78-0.9
		C27.42,56.21,27.58,56.09,27.72,55.99z"/>
	<path class="st0" d="M43.41,45.66c1.45-1.33,1.5-1.44,1.02-2.12c0.11-0.07,0.21-0.15,0.33-0.24
		C45.06,44.96,44.44,46.03,43.41,45.66z"/>
	<path class="st0" d="M29.97,54.37c0.38,0.48,0.72,0.91,1.06,1.34c-0.01,0.05-0.02,0.1-0.03,0.15c-0.22-0.04-0.5,0-0.64-0.12
		C29.68,55.11,29.64,54.93,29.97,54.37z"/>
	<path class="st0" d="M30.36,56.16c-0.4,0.32-0.65,0.22-0.85-0.08c-0.16-0.24-0.33-0.48-0.48-0.73c-0.04-0.08-0.03-0.19-0.04-0.29
		c0.09,0,0.22-0.04,0.27,0C29.63,55.41,29.99,55.78,30.36,56.16z"/>
	<path class="st0" d="M26.18,57.2c0.48,0.5,0.88,0.92,1.37,1.43c-0.35,0-0.69,0.1-0.81-0.02C26.39,58.28,26.04,57.89,26.18,57.2z"/>
	<path class="st0" d="M25.03,60.26c-1.08,0.23-0.88-0.76-1.33-1.1c0.17-0.11,0.29-0.2,0.42-0.28
		C24.41,59.32,24.68,59.74,25.03,60.26z"/>
	<path class="st0" d="M32.56,35.61c0.35,0.12,0.65,0.23,1.09,0.38c-0.37,0.35-0.69,0.64-1.09,1.01
		C32.56,36.47,32.56,36.08,32.56,35.61z"/>
	<path class="st0" d="M26.66,59.02c-0.17,0.08-0.31,0.14-0.48,0.22c-0.28-0.49-0.55-0.96-0.81-1.43c0.05-0.04,0.1-0.08,0.15-0.12
		C25.98,58.02,26.28,58.53,26.66,59.02z"/>
	<path class="st0" d="M34.95,47.24c-0.15,0.55,0.51,0.96-0.04,1.52c-0.22-0.44-0.4-0.81-0.6-1.22
		C34.48,47.46,34.64,47.39,34.95,47.24z"/>
	<path class="st0" d="M26.05,59.46c-0.53,0.07-1.15-0.82-1.03-1.47C25.39,58.51,25.7,58.96,26.05,59.46z"/>
	<path class="st0" d="M24.61,58.49c0.28,0.42,0.57,0.83,0.89,1.3c-0.14,0.05-0.33,0.14-0.35,0.12c-0.27-0.42-0.51-0.86-0.76-1.3
		C24.46,58.58,24.53,58.54,24.61,58.49z"/>
	<path class="st0" d="M47.22,36.82c-0.17,0.12-0.3,0.21-0.43,0.29c-0.04,0.03-0.09,0.03-0.23,0.08c0.15-0.33,0.27-0.6,0.43-0.94
		C47.08,36.48,47.14,36.63,47.22,36.82z"/>
	<path d="M23.15,8.46c-1.32,1.34-2.53,2.77-3.4,4.46C20.42,11.08,21.68,9.69,23.15,8.46z"/>
	<path d="M24.11,26.48c-0.7-0.43-1.36-0.83-2.01-1.23c-0.1-0.06-0.2-0.14-0.3-0.2c-0.71-0.39-0.74-0.49-0.64-1.27
		c0.05-0.38,0.02-0.77,0.03-1.15c0.01-0.16,0.03-0.33,0.05-0.66c0.8,1.14,1.9,1.56,2.97,2.03c0.15,0.07,0.32,0.32,0.3,0.46
		C24.43,25.09,24.27,25.71,24.11,26.48z"/>
	<path d="M47.06,40.91c-0.55,0-0.87-0.32-0.87-0.88c0-0.52,0.45-1.01,0.94-1.02c0.46-0.01,0.94,0.47,0.94,0.94
		C48.08,40.51,47.66,40.91,47.06,40.91z"/>
	<path d="M28.54,34.62c-0.21,0.43-0.36,0.9-0.65,1.27c-0.42,0.54-1.04,0.48-1.47-0.05c-0.46-0.57-0.5-1.78-0.08-2.38
		c0.42-0.61,1.36-0.58,1.76,0.08C28.3,33.83,28.38,34.2,28.54,34.62z"/>
	<path d="M32.86,42.68c-0.05,0.09-0.09,0.23-0.16,0.25c-1.77,0.46-3.26,1.5-4.9,2.25c-0.04,0.02-0.1-0.01-0.15-0.01
		c0.18-0.39,5.97-3.31,6.36-3.13c-0.51,0-0.44,0.9-1.12,0.64C32.9,42.68,32.86,42.68,32.86,42.68z"/>
	<path d="M32.86,42.68c0,0,0.03,0,0.03,0C32.9,42.68,32.86,42.68,32.86,42.68z"/>
	<path d="M34.85,38.64c1.1-0.43,2.2-0.86,3.3-1.3c0.02,0.06,0.04,0.11,0.07,0.17c-1.1,0.42-2.2,0.84-3.3,1.27
		C34.9,38.74,34.87,38.69,34.85,38.64z"/>
	<path d="M16.16,23.26c0.12-0.36,0.19-0.75,0.39-1.05c0.33-0.52,0.97-0.43,1.17,0.15c0.28,0.79,0.12,1.55-0.34,2.23
		c-0.29,0.43-0.65,0.39-0.86-0.1C16.36,24.12,16.29,23.71,16.16,23.26z"/>
	<path d="M53.37,42.79c-0.22,0.03-0.44,0.06-0.7,0.09c-0.15-0.37,0.14-0.57,0.44-0.76c0.27-0.17,0.54-0.34,0.82-0.51
		c0.04,0.03,0.07,0.06,0.11,0.08c-0.13,0.2-0.25,0.41-0.38,0.61c-0.12,0.06-0.24,0.12-0.36,0.17c0,0.04,0,0.08,0,0.11
		C53.32,42.67,53.34,42.73,53.37,42.79z"/>
	<path class="st0" d="M53.29,42.49c0.12-0.06,0.24-0.12,0.36-0.17c0,0,0.01,0.02,0.01,0.02c0.02,0.13,0.04,0.26,0.06,0.39
		c-0.05,0.02-0.1,0.03-0.15,0.05c-0.06-0.04-0.11-0.08-0.17-0.12l0.01,0.02C53.38,42.61,53.33,42.55,53.29,42.49z"/>
	<path d="M53.73,42.73c-0.02-0.13-0.04-0.26-0.06-0.39C53.69,42.47,53.71,42.6,53.73,42.73z"/>
	<path class="st0" d="M53.35,42.77c0,0,0.02,0.02,0.02,0.02c-0.03-0.06-0.05-0.13-0.08-0.19c0.04,0.02,0.09,0.05,0.13,0.07
		c0,0-0.01-0.02-0.01-0.02C53.39,42.69,53.37,42.73,53.35,42.77z"/>
	<path d="M53.35,42.77c0.02-0.04,0.04-0.08,0.06-0.12c0.06,0.04,0.11,0.08,0.17,0.12C53.5,42.77,53.42,42.77,53.35,42.77z"/>
	<path d="M53.42,42.67c-0.04-0.02-0.09-0.05-0.13-0.07c0-0.04,0-0.08,0-0.11C53.33,42.55,53.38,42.61,53.42,42.67z"/>
</g>
<path class="st1" d="M41.7,47.63v5.54c0,0,14.33,0,16.21,0c1.88,0,4.29-1.74,4.29-4.62c0-1.16,0.44-1.92-0.92-3.45l-2.07-2.46
	c-1.19-1.11,0.14-1.11,1.14-1.11c0.55,0,6.84,0,6.84,0v11.64h5.43V41.54h7.32v-4.98H56.25c-2.88,0-4.29,2.77-4.21,4.21
	c0.08,1.44,0.34,3.25,2.74,5.43c2.18,1.99-1.08,1.44-1.41,1.44C51.7,47.63,41.7,47.63,41.7,47.63L41.7,47.63z"/>
<path class="st1" d="M91.94,36.55h-8.76l-4.91,16.62h5.46l0.89-2.33h5.76l0.86,2.33h5.35L91.94,36.55L91.94,36.55z"/>
<path class="st1" d="M113.88,47.63c-2.11,0-2.11-0.78-2.11-0.78c1.8,0,3.4-2.63,3.4-5.32c0-2.69-2.63-4.98-4.73-4.98
	c-2.11,0-11.78,0-11.78,0v16.62h5.99v-5.54c0,0,2.55,2.99,3.88,4.21c1.33,1.22,1.44,1.33,3.25,1.33c1.8,0,9.4,0,9.4,0v-5.54
	C121.18,47.63,115.99,47.63,113.88,47.63L113.88,47.63z"/>
<polygon class="st1" points="41.7,55.28 47.83,55.28 49.38,60.82 50.82,55.28 57.25,55.28 58.91,60.82 60.57,55.28 65.89,55.28 
	61.02,71.91 56.14,71.91 54,64.04 51.59,71.91 46.61,71.91 41.7,55.28 "/>
<path class="st1" d="M78.46,55.38H69.7L64.8,72h5.46l0.89-2.33h5.76L77.76,72h5.35L78.46,55.38L78.46,55.38z"/>
<path class="st1" d="M114,60.27c-1,0-2.08,0.12-0.9,1.22l2.07,2.46c1.36,1.53,1.34,2.17,1.34,3.33c0,2.88-2.85,4.62-4.73,4.62
	l-13.1,0.09c-1.8,0-1.92-0.11-3.25-1.33c-1.33-1.22-3.88-4.21-3.88-4.21v5.54h-5.99V55.37c0,0,9.67,0,11.78,0
	c2.11,0,4.73,2.29,4.73,4.98s-1.6,5.32-3.4,5.32c0,0,0.79,0.8,2.12,0.8c1.33,0,6.45,0.01,6.45,0.01c0.33,0,3.59,0.55,1.41-1.44
	c-2.4-2.18-2.66-3.99-2.74-5.43c-0.08-1.44,1.17-4.33,4.05-4.33h11.2v4.99H114L114,60.27z"/>
<rect x="98.23" y="73.9" class="st2" width="23.84" height="15.08"/>
<text transform="matrix(1 0 0 1 98.231 81.3049)" class="st0 st3 st4">library</text>
</svg>
