<?xml version="1.0" encoding="utf-8"?>
<!-- Generator: Adobe Illustrator 25.4.1, SVG Export Plug-In . SVG Version: 6.00 Build 0)  -->
<svg version="1.1" id="Capa_1" xmlns="http://www.w3.org/2000/svg" xmlns:xlink="http://www.w3.org/1999/xlink" x="0px" y="0px"
	 viewBox="0 0 141.7 85" style="enable-background:new 0 0 141.7 85;" xml:space="preserve">
<style type="text/css">
	.st0{fill:#FFFFFF;}
	.st1{fill-rule:evenodd;clip-rule:evenodd;fill:#FFED00;}
	.st2{fill:none;}
	.st3{enable-background:new    ;}
</style>
<g>
	<path d="M44.4,36c1-0.5,2-1,3-1.5c0,0,0.1,0.1,0.1,0.1c-0.1,0.3-0.1,0.7-0.2,1.1c0.6,0,0.7-0.3,0.8-0.7c0-0.2,0.2-0.4,0.3-0.5
		c2.7-1.4,5.4-2.7,8.1-4.1c0.6-0.3,1.2-0.6,1.9-0.9c0.1,0.5,0.3,0.9,0.4,1.4c0.2,1,0.4,2,0.6,3c0.1,0.3,0,0.4-0.3,0.6
		c-0.5,0.2-1,0.4-1.3,0.8c-0.2,0.4-0.1,1-0.2,1.5c0,0.2-0.1,0.4-0.3,0.5c-0.7,0.3-1.3,0.7-1.9,1c0,0.9,0.1,1.8,0,2.6
		c-0.1,1.4-0.9,2.5-1.9,3.4c-0.8,0.7-1.7,1.2-2.8,1.4c-0.7,0.1-1.3,0.2-1.9-0.3c-0.1,0-0.2-0.1-0.2-0.1c-0.7-0.2-1.5-0.4-2.2-0.5
		c0,0.3-0.1,0.6-0.2,1c-0.1,0.8-0.7,1.3-1.4,1.5c-0.4,0.1-0.7,0.2-0.9,0.6c-0.2,0.4-0.6,0.6-0.9,1c0.6-0.1,1.1,0.2,1.2,0.8
		c0,0.5-0.1,1-0.2,1.5c0,0-0.1,0-0.2,0c0.1,0.1,0.2,0.1,0.3,0.2c0.3,0.2,0.4,0.5,0.1,0.8c-0.8,1-1.8,1.8-3,2.2
		c-0.9,0.3-1.5-0.2-2.2-0.7c-0.1-0.1-0.2-0.2-0.3-0.3c-1.4,0.7-1.5,2-1.6,3.3c-0.2,1.6-0.3,3.2-0.5,4.8c0,0.2-0.1,0.3-0.2,0.5
		c-0.4-0.2-0.8-0.3-1.2-0.5c-1.9-1.1-3.9-1-5.8,0c-1.1,0.6-2.2,1.4-3.3,2.1c-0.3,0.2-0.7,0.4-1.1,0.7c-0.2-0.3-0.5-0.6-0.7-0.9
		c-0.5,0.3-0.9,0.5-1.4,0.8c-0.4,0.2-0.6,0.2-0.6-0.3c-0.1-0.5,0-1.1-0.1-1.6c0-0.3-0.2-0.6-0.4-0.8c-0.8-0.7-1.4-1.5-1.4-2.6
		c0-0.2-0.1-0.5-0.1-0.7c-0.1,0-0.3,0-0.5,0.1c-0.5-1.6-1-3.1-1.5-4.7c-0.3-0.9-0.5-1.8-0.8-2.7c-0.1-0.5-0.5-0.6-0.9-0.5
		c-0.6,0.2-0.6,0.1-0.8-0.5c-0.7-1.9-0.9-3.9-0.9-5.9c0-1.9,0.3-3.8,1.4-5.4c0.7-1.1,1.7-1.9,3.1-1.9c0.5,0,1.1,0.3,1.6,0.4
		c0.2,0.1,0.3,0.2,0.5,0.3c0.4-0.6,0.9-1.2,1.2-1.8c1,0.6,1.8,1.2,2.7,1.8c0,0,0.1-0.1,0.1-0.2c-0.2-0.2-0.3-0.5-0.5-0.5
		c-1.5-0.8-3.1-1.5-4.6-2.2c-1.1-0.5-2.2-0.9-3.2-1.6c-1.7-1.2-2.4-3.3-1.1-5.2c0,0,0-0.1,0-0.1c-1.1-1.7-0.8-3.7-0.8-5.6
		c0-0.4,0.3-0.8,0.5-1.1c0.2-0.3,0.3-0.6,0.3-0.9c0-0.9,0-1.8,0-2.7c-0.5-0.1-0.3-0.6-0.2-0.9c0.5-2.3,1.5-4.4,3-6.3
		c2.2-2.7,5-4.5,8.5-5c4.7-0.7,8.6,0.8,11.9,4.2c1.9,2,3,4.4,3.6,7.1c0.2,0.8-0.3,0.8-0.7,0.9c0,0.7-0.2,1.4,0,1.9
		c0.4,0.9,0.3,1.6,0,2.4c-0.1,0.3,0,0.8,0.1,1.2c0.2,1.9,0.1,3.9-0.3,5.8c-0.1,0.6,0.1,1,0.4,1.4c0.8,1.1,1.3,2.3,1.2,3.7
		C43.8,34.1,44,35,44.4,36z M20.5,15.5c-0.1,0.5-0.2,0.9-0.3,1.4c-0.1,0.3,0,0.5,0.4,0.5c1.2,0.1,2.4,0.3,3.6,0.4
		c1.7,0.1,3.4,0.3,5,0.3c2.9,0,5.8-0.2,8.7-0.7c1.6-0.3,3.1-0.7,4.7-1c-0.8-5.6-5.5-11.2-12.4-11.5c-6.9-0.4-12.7,4.8-13.8,11.6
		c0.6,0.2,1.2,0.3,1.7,0.5c0.2-0.7,0.4-1.3,0.5-1.9c0-0.1,0.3-0.3,0.4-0.2C19.6,15,20.1,15.2,20.5,15.5z M16.6,18.3
		c0,0.5,0,0.9,0.1,1.3c0,0.1,0.2,0.3,0.3,0.3c1.5,0.3,2.3,1.1,2.5,2.7c0.2,1.5,0.4,2.9,0.5,4.4c0,0.4,0.2,0.6,0.6,0.8
		c0.5,0.2,1.1,0.4,1.6,0.6c1.4,0.7,2.8,1.5,4.3,2.2c0.1,0,0.3,0,0.4,0c0.8-0.7,1.6-1.4,2.4-2c1-0.9,2-1.9,3.1-2.7
		c1.7-1.3,3.6-1.3,5.3,0.1c0.9,0.7,1.7,1.5,2.5,2.3c0.4,0.4,0.8,0.7,1.2,1.1c0.1-0.3,0.2-0.4,0.2-0.6c0.2-1,0.4-2.1,0.5-3.1
		c0.1-1.2,0.1-2.5,0-3.7c0-0.6-0.1-1.1,0.2-1.7c0.1-0.2,0-0.6,0-1c-0.1,0.1-0.1,0.2-0.1,0.2c-0.5,1.7-1.7,2.5-3.4,2.6
		c-1.7,0-2.8-0.9-4-1.9c-0.1-0.1-0.3-0.3-0.5-0.2c-0.4,0.1-0.9,0.1-1.2,0.3c-1,0.5-1.9,1.2-2.8,1.8c-1,0.6-2.1,1-3.3,1.3
		c-2.8,0.5-5.3-1.4-6.4-3.6c-0.2-0.4-0.4-0.6-0.8-0.6C18.7,18.8,17.7,18.6,16.6,18.3z M34,47.7c-0.4,0.2-0.7,0.3-1,0.5
		c-1.3,0.7-2.5,1.3-3.8,2c-0.9,0.4-0.9,0.4-1.3-0.5c-0.5-1.1-1-2.3-1.6-3.4c-0.2-0.3-0.5-0.6-0.2-1c0.2-0.3,0.4-0.7,0.7-0.8
		c1.1-0.6,2.3-1.1,3.4-1.7c0.4-0.2,0.6-0.4,0.5-0.8c0,0.2,0,0.3,0.1,0.5c0.7-0.3,1.3-0.6,2-1c0.1-0.1,0.3-0.3,0.2-0.4
		c-0.2-0.5-0.4-1-0.7-1.5c-0.1-0.3,0.2-1,0.5-1.1c0.4-0.1,0.9-0.2,1.3-0.3c0.8-0.3,1.5-0.5,2.3-0.8c-0.2-0.3-0.4-0.7-0.6-1
		c-0.1-0.1-0.2-0.2-0.3-0.2c-0.9,0.1-2-0.1-2.5,0.9c-0.2,0.4-0.5,0.4-0.8,0.6c-2.2,1.3-4.9,1.1-6.9-0.3c-0.8-0.6-1.6-1-2.5-1.5
		c-0.4,0.5-0.7,1-1.1,1.6c1.2,1.4,1.9,3.7,2.2,5.5c0.1,0.6,0.1,1.2,0.2,1.9c0.1,1,0.4,2-0.8,2.6c0.9,2,1.7,3.9,2.5,5.8
		c0.1,0.3,0.4,0.5,0,0.8c0,0,0,0.2,0,0.3c0.1,0.2,0.2,0.4,0.3,0.5c1.5-1,3-1.9,4.4-2.9c0-0.2,0-0.4,0.2-0.5c0.8-0.6,1.7-1.1,2.5-1.6
		c0.2-0.1,0.5-0.1,0.5-0.1c0.3,0.4,0.6,0.1,0.8,0c0.4-0.2,0.8-0.3,1.2-0.6c0.3-0.2,0.6-0.5,0.8-0.8c0,0-0.1-0.1-0.1-0.1
		c-0.5,0.3-1,0.6-1.5,0.8c-0.3,0.2-0.6,0.3-0.8-0.2C34.4,48.3,34.2,48,34,47.7z M16.4,49.6c0.6,0,1.3,0,2-0.2
		c1.8-0.3,3.4-1.1,4.8-2.3c0.6-0.5,1-1,0.8-1.8c-0.1-0.4,0-0.9-0.1-1.3c-0.1-1-0.2-1.9-0.5-2.9c-0.3-1.3-0.8-2.6-1.7-3.7
		c-0.9-1.1-2.5-1.3-3.7-0.6c-0.9,0.5-1.5,1.3-1.9,2.3c-0.6,1.6-0.8,3.2-0.7,4.9C15.5,46,15.7,47.8,16.4,49.6z M42.1,46.5
		c0.5,0.1,1.2,0.2,1.8,0.2c1,0,2-0.2,2.1-1.5c0.1-0.7,0-1.3-0.1-2c-0.1-0.4,0-0.6,0.3-0.8c0.8-0.6,1.7-1.1,2.5-1.7
		c0.3-0.2,0.3-0.4,0.3-0.7c0-0.6,0-1.2,0.1-1.9c0-0.2,0.2-0.5,0.4-0.7c0.2-0.1,0.5,0,0.7,0c0.4-1,0.7-1.2,1.4-0.8
		c0.9-1.5,1.3-1.5,2.2,0c1.8-0.9,3.5-1.8,5.2-2.7c-0.3-1.4-0.6-2.7-0.8-4.1c-1.2,0.6-1.3,1-0.6,2c0,0,0,0,0,0c0,0.1,0,0.3-0.1,0.4
		c-0.3,0.2-0.7,0.4-1.1,0.6c-1.4,0.7-2.7,1.4-4.2,2.1c-0.3-0.6-0.5-1.1-0.8-1.7c-0.7,0.3-1.3,0.7-2,1c-0.1,0-0.2,0.2-0.1,0.2
		c0.1,0.5-0.2,0.7-0.6,0.8c-0.3,0.2-0.6,0.4-1,0.5c-0.4,0.1-0.5,0.3-0.3,0.7c0.2,0.3,0,0.5-0.3,0.6c-0.6,0.2-1,0.6-1,1.2
		c0,0.1-0.2,0.3-0.3,0.3c-2.2,1.2-4.5,2.3-6.8,3.5c-0.7,0.4-1.5,0.8-2.2,1.1c0,0,0,0.1,0.1,0.1c3.5-1.8,6.9-3.5,10.4-5.2
		c0,0,0,0.1,0.1,0.1c-0.1,0.1-0.2,0.2-0.3,0.2c-3.2,1.7-6.5,3.3-9.7,5c-0.5,0.2-0.5,0.2-0.3,0.8c2.7-1.4,5.4-2.7,8.2-4.2
		c0,0.4,0,0.7,0,0.9c0,0.2-0.1,0.3-0.3,0.4c-1.4,0.7-2.8,1.4-4.2,2.1c-1.2,0.6-2.3,1.2-3.5,1.8c0.1,0.2,0.1,0.5,0.2,0.7
		c-0.8,0.4-1.6,0.7-2.4,1.1c0.2,0.4,0.3,0.8,0.4,1.1c1.2-0.5,2.2-1.1,2.9-2.1c1.1-1.4,2.7-2.2,4.5-2.7c0.6-0.2,1.3,0.2,1.8-0.5
		c0,0,0.3,0.1,0.3,0.1c0.2,0.7,0.3,1.4,0,2.1c-0.3,0.5-1.1,1-1.4,0.8C42.8,45.7,42.5,46.3,42.1,46.5z M18,31.7
		c-0.2,0.6,0.1,0.8,0.5,1c1,0.5,2,1,3,1.4c1.8,0.8,3.6,1.5,5.2,2.8c1,0.8,2.1,0.4,2.5-0.8c0.2-0.5,0.2-1.2,0.4-1.7
		c0.1-0.7-0.1-1.2-0.6-1.6c-1-0.7-1.9-1.4-2.9-2.1c-2.3-1.4-4.8-2.4-7.3-3.2c-0.7-0.2-0.9-0.1-1.3,0.7c-0.5,1-0.3,2,0.3,2.9
		C17.8,31.3,17.9,31.5,18,31.7z M36.7,53.3c-0.3,0.2-0.4,0.2-0.5,0.3c-0.5,0.5-1,1.1-1.5,1.5c-0.5,0.3-1,0.9-1.7,0.3
		c0,0-0.2,0-0.3,0.1c-1.3,0.9-2.6,1.8-3.9,2.8c-1.2,0.9-2.5,1.8-3.8,2.6c-0.3,0.2-0.5,0.2-0.7-0.1c-0.4-0.5-0.7-1.1-1.2-1.8
		c2.7-2,5.4-4,8.2-6.1c-0.1-0.2-0.3-0.5-0.5-0.9c-0.2,0.1-0.3,0.1-0.4,0.2c-1.6,1-3.2,2.1-4.8,3.2c-1.1,0.8-2.2,1.7-3.2,2.5
		c-0.1,0.1-0.3,0.4-0.2,0.6c0.3,2.1,1.4,3.6,3.1,4.8c4.8-3,9.1-6.7,13.2-10.6c-0.5-1.4-1.1-2.6-2.1-3.7c-0.7,0.3-1.4,0.7-2,1
		C35.2,51.2,36,52.3,36.7,53.3z M17.8,49.8c0.8,2.6,1.5,5.1,2.3,7.6c2.2-1.1,4.1-2.4,5.7-3.9c-0.9-2.1-1.7-4.1-2.6-6.1
		C21.6,48.7,19.9,49.5,17.8,49.8z M29.8,34.2c0.9-0.7,1.7-1.4,2.5-2c0.8-0.6,1.7-1.2,2.8-1.3c1.5-0.1,3.2,0.9,3.8,2.5
		c0.3,0.6,0.5,1.3,0.7,2c0.1,0.4,0.4,0.5,0.7,0.3c0.5-0.3,1-0.8,1.6-1.2c-0.9,0.1-1.5,0-1.7-0.6c-0.2-0.5-0.2-1-0.2-1.5
		c0.1-0.7,0.5-1.4,0.8-2.1c-1.4-0.9-2.8-1.9-4.5-2.3c-1.9-0.5-3.6-0.3-5.1,1.1c-0.8,0.7-1.6,1.4-2.5,2c-0.3,0.2-0.6,0.4-0.9,0.5
		C28.6,32.4,29.9,32.6,29.8,34.2z M36.2,53.1c-0.8-1.1-1.6-2.2-2.4-3.3c-0.5,0.3-1,0.5-1.5,0.8c-0.5,0.3-0.9,0.6-1.4,1
		c0.8,1.2,1.6,2.3,2.3,3.5c0.2,0.3,0.3,0.3,0.7,0.2C34.9,54.9,35.5,54,36.2,53.1z M39.7,46.7c-0.7,0.8-1.4,1.6-2.1,2.4
		c0,0.1,0,0.2,0,0.3c0.6,1.1,1.2,2.1,1.8,3.2c0.2,0.3,0.5,0.4,0.8,0.3c0.5-0.2,1-0.3,1.5-0.5c0.1,0,0.2-0.3,0.2-0.4
		c-0.2-0.8-0.4-1.5-0.6-2.2C41,48.6,40.6,47.6,39.7,46.7z M31.3,59.6c1.9-0.3,3.5,0.4,5.1,0.9c0.2-2,0.4-3.9,0.7-5.9
		C35.2,56.2,33.3,57.8,31.3,59.6z M35.3,40.6c-2.8,1.4-5.5,2.8-8.3,4.2c0.3,0.5,0.6,1,1,1.5c2.5-1.3,5-2.6,7.5-3.8
		C35.4,41.8,35.4,41.3,35.3,40.6z M29.8,35.5c0.5-0.3,0.9-0.6,1.4-0.8c1.2-0.6,2.3-1.3,3.5-1.8c0.8-0.4,1.7-0.3,2.4,0.4
		c0.5,0.5,0.9,1,1.3,1.5c0.3,0.3,0.5,0.5,0.8,0.8c0.1,0,0.1-0.1,0.2-0.1c-0.2-0.7-0.5-1.3-0.7-2c-0.8-1.8-3.1-3.2-5.4-1.5
		c-1,0.7-1.8,1.5-2.8,2.1C30,34.3,29.7,34.7,29.8,35.5z M39.5,38.4c-0.2-0.5-0.5-0.8-0.7-1.2c-0.1-0.2-0.2-0.3-0.5-0.2
		c-0.9,0.3-1.9,0.6-2.8,0.9c-0.8,0.3-1.5,0.6-2.3,0.9c0.4,0.6,0.7,1.2,1,1.7c0,0.1,0.2,0.1,0.3,0.1c0.6-0.2,1.3-0.4,1.9-0.7
		C37.5,39.5,38.5,38.9,39.5,38.4z M18.8,27.1c0-0.1,0-0.2,0-0.3c-0.1-1.3-0.2-2.6-0.4-3.9c-0.1-0.8-0.4-1.6-1.3-2
		c-0.7-0.2-1.2,0-1.3,0.7c0,1.2,0.1,2.4,0.2,3.6c0,0.4,0.3,0.9,0.5,1.3c0,0.1,0.2,0.2,0.3,0.2C17.4,27,18.1,27,18.8,27.1z
		 M54.6,40.9c-0.2,0.1-0.3,0.1-0.4,0.2c-1.4,0.7-2.8,1.4-4.2,2.2c-0.2,0.1-0.6,0.3-0.7,0.6c-0.5,1.2-0.2,1.6,1.1,1.4
		c1.4-0.2,2.4-1,3.4-1.9C54.5,42.7,54.6,41.8,54.6,40.9z M40.7,31.2c0.3,0,0.5-0.1,0.7-0.1c0.5,0,1,0.3,1.1,0.8
		c0.1,0.7,0.3,1.4-0.2,2c0.5,0,0.6-0.8,1.2-0.4c0.1-1.4-0.5-3-1.6-4.4C41.5,29.8,41.1,30.5,40.7,31.2z M19.8,27.5c0-0.2,0-0.3,0-0.4
		c-0.2-1.5-0.3-3-0.5-4.5c-0.2-1.1-0.7-2-1.9-2.2c-0.3-0.1-0.6-0.2-0.9,0.2c1.2,0.1,2,0.8,2.2,2c0.2,1.6,0.4,3.1,0.6,4.8
		C19.3,27.4,19.5,27.4,19.8,27.5z M36.1,36c0.6,1.2,0.6,1.2,1.9,0.8c0.1,0,0.3-0.1,0.4-0.1c0.1,0,0.2-0.1,0.2-0.1
		c0.1-0.2,0.2-0.5,0.4-0.8c-0.3-0.3-0.6-0.5-0.8-0.8C37.5,35.2,36.8,35.6,36.1,36z M17.5,27.3c-0.5-0.2-0.7-0.2-1,0.3
		c-0.4,0.6-0.6,1.3-0.5,2c0.1,1.1,0.7,2,1.6,2.6c0-0.3-0.1-0.7-0.3-0.9C16.5,30,16.4,28.5,17.5,27.3z M43.6,34.8
		c-0.4,0.5-0.7,1.1-1.1,1.3c-0.5,0.3-1.2,0.3-1.8,0.4c0.2,0.3,0.4,0.7,0.5,1c1-0.5,1.9-1,2.9-1.4C43.9,35.6,43.8,35.2,43.6,34.8z
		 M55.4,37.7c0.6-0.3,1.3-0.7,1.7-1c0.1-0.6,0.2-1,0.2-1.3c-0.9,0.4-1.8,0.8-2.7,1.2C54.9,36.9,55.1,37.3,55.4,37.7z M32.9,45.9
		c0.7-0.4,1.4-0.7,2-1c0.3-0.2,0.4-0.7,0.2-0.9c-0.2-0.3-0.5-0.2-0.7,0c-0.2,0.2-0.8,0.1-0.8,0.6c0,0-0.2,0-0.2,0
		c-0.3,0.1-0.5,0.1-0.8,0.2C32.7,45.2,32.8,45.5,32.9,45.9z M29.2,47.5c0.6-0.3,1.1-0.7,1.7-0.9c0.9-0.3,0.8-0.7,0.3-1.2
		c-0.7,0.4-1.4,0.7-2.1,1.1c-0.1,0.1-0.2,0.3-0.2,0.4C29,47.1,29.1,47.3,29.2,47.5z M43.2,33.7c-0.9,0.7-1.8,1.4-2.7,2.1
		c0,0.1,0.1,0.1,0.1,0.2c0.4-0.1,0.8-0.3,1.2-0.4c0,0.1-0.1,0.2-0.2,0.3C42.6,35.7,43.5,34.6,43.2,33.7z M24.2,62.7
		c-0.5-0.4-0.9-0.9-1.4-1.3c0,0-0.1,0.1-0.1,0.1c0,0.7,0.1,1.3,0.1,2C23.3,63.2,23.7,63,24.2,62.7z M27.7,46.5c-0.3-0.5-0.7-1-1-1.5
		c-0.2,0.3-0.3,0.5-0.5,0.7c0.3,0.5,0.6,1,0.9,1.5C27.3,47,27.5,46.7,27.7,46.5z M32.7,55.1c-0.3-0.5-0.7-0.9-0.9-1.4
		c-0.3-0.5-0.5-0.3-0.8,0c0.4,0.6,0.8,1.2,1.2,1.7C32.4,55.3,32.5,55.2,32.7,55.1z M26.9,56.6c-0.3,0.2-0.5,0.3-0.2,0.6
		c0.8,1.1,0.8,1.1,1.6,0.6C27.8,57.4,27.4,57,26.9,56.6z M30.7,53.9c-0.3,0.1-0.4,0.4-0.2,0.6c0.3,0.5,0.6,0.9,1,1.4
		c0.2-0.1,0.3-0.2,0.5-0.3c-0.2-0.4-0.4-0.7-0.7-1C31.1,54.3,30.9,54.1,30.7,53.9z M36.3,61.2c0-0.4,0-0.4-1.6-1
		c-1.6-0.6-3.9-0.5-4.5,0.2C32.5,59.4,34.4,60.2,36.3,61.2z M28,55.8c0.2,0.3,0.4,0.5,0.6,0.8c0.4,0.6,0.4,0.6,1,0.2
		C28.7,55.4,28.5,55.3,28,55.8z M27.7,56c-0.1,0.1-0.3,0.2-0.5,0.4c0.3,0.3,0.6,0.6,0.8,0.9c0.3,0.4,0.5,0.4,0.9,0.1
		C28.5,56.9,28.2,56.5,27.7,56z M43.4,45.7c1,0.4,1.7-0.7,1.3-2.4c-0.1,0.1-0.2,0.2-0.3,0.2C44.9,44.2,44.9,44.3,43.4,45.7z
		 M30,54.4c-0.3,0.6-0.3,0.7,0.4,1.4c0.1,0.1,0.4,0.1,0.6,0.1c0,0,0-0.1,0-0.2C30.7,55.3,30.3,54.8,30,54.4z M30.4,56.2
		c-0.4-0.4-0.7-0.8-1.1-1.1c0,0-0.2,0-0.3,0c0,0.1,0,0.2,0,0.3c0.1,0.2,0.3,0.5,0.5,0.7C29.7,56.4,30,56.5,30.4,56.2z M26.2,57.2
		c-0.1,0.7,0.2,1.1,0.5,1.4c0.1,0.1,0.5,0,0.8,0C27.1,58.1,26.7,57.7,26.2,57.2z M25,60.3c-0.4-0.5-0.6-1-0.9-1.4
		C24,59,23.9,59,23.7,59.1C24.1,59.5,24,60.5,25,60.3z M32.6,35.6c0,0.5,0,0.9,0,1.4c0.4-0.4,0.7-0.7,1.1-1
		C33.2,35.8,32.9,35.7,32.6,35.6z M26.7,59c-0.4-0.5-0.7-1-1.1-1.3c0,0-0.1,0.1-0.1,0.1c0.3,0.5,0.5,0.9,0.8,1.4
		C26.4,59.2,26.5,59.1,26.7,59z M35,47.2c-0.3,0.1-0.5,0.2-0.6,0.3c0.2,0.4,0.4,0.8,0.6,1.2C35.5,48.2,34.8,47.8,35,47.2z M26,59.5
		c-0.4-0.5-0.7-1-1-1.5C24.9,58.6,25.5,59.5,26,59.5z M24.6,58.5c-0.1,0-0.1,0.1-0.2,0.1c0.2,0.4,0.5,0.9,0.8,1.3
		c0,0,0.2-0.1,0.4-0.1C25.2,59.3,24.9,58.9,24.6,58.5z M47.2,36.8c-0.1-0.2-0.1-0.3-0.2-0.6c-0.2,0.3-0.3,0.6-0.4,0.9
		c0.1,0,0.2,0,0.2-0.1C46.9,37,47,36.9,47.2,36.8z"/>
	<path class="st0" d="M20.5,15.5c-0.5-0.2-0.9-0.5-1.4-0.7c-0.1,0-0.3,0.1-0.4,0.2c-0.2,0.6-0.4,1.2-0.5,1.9
		c-0.6-0.2-1.1-0.3-1.7-0.5c1.1-6.8,6.8-12,13.8-11.6c7,0.4,11.6,5.9,12.4,11.5c-1.6,0.3-3.1,0.7-4.7,1c-2.9,0.5-5.8,0.7-8.7,0.7
		c-1.7,0-3.4-0.1-5-0.3c-1.2-0.1-2.4-0.3-3.6-0.4c-0.4,0-0.5-0.2-0.4-0.5C20.4,16.4,20.5,15.9,20.5,15.5z M23.1,8.5
		c-1.5,1.2-2.7,2.6-3.4,4.5C20.6,11.2,21.8,9.8,23.1,8.5z"/>
	<path class="st0" d="M16.6,18.3c1.1,0.2,2.2,0.5,3.2,0.7c0.4,0.1,0.6,0.3,0.8,0.6c1.1,2.2,3.5,4.1,6.4,3.6c1.2-0.2,2.3-0.6,3.3-1.3
		c0.9-0.6,1.9-1.2,2.8-1.8c0.4-0.2,0.8-0.3,1.2-0.3c0.1,0,0.3,0.1,0.5,0.2c1.1,1.1,2.3,2,4,1.9c1.7,0,3-0.9,3.4-2.6
		c0,0,0-0.1,0.1-0.2c0,0.4,0.1,0.7,0,1c-0.3,0.5-0.2,1.1-0.2,1.7c0.1,1.2,0.1,2.5,0,3.7c-0.1,1-0.3,2.1-0.5,3.1
		c0,0.2-0.1,0.4-0.2,0.6c-0.4-0.4-0.8-0.8-1.2-1.1c-0.8-0.8-1.7-1.6-2.5-2.3c-1.7-1.4-3.6-1.4-5.3-0.1c-1.1,0.8-2.1,1.8-3.1,2.7
		c-0.8,0.7-1.6,1.4-2.4,2c-0.1,0.1-0.3,0.1-0.4,0c-1.4-0.7-2.8-1.5-4.3-2.2c-0.5-0.2-1-0.4-1.6-0.6c-0.4-0.1-0.5-0.4-0.6-0.8
		c-0.1-1.5-0.3-2.9-0.5-4.4c-0.2-1.6-1-2.3-2.5-2.7c-0.1,0-0.3-0.2-0.3-0.3C16.6,19.2,16.6,18.8,16.6,18.3z M24.1,26.5
		c0.2-0.8,0.3-1.4,0.4-2c0-0.1-0.2-0.4-0.3-0.5c-1.1-0.5-2.2-0.9-3-2c0,0.3,0,0.5,0,0.7c0,0.4,0,0.8,0,1.1c-0.1,0.8-0.1,0.9,0.6,1.3
		c0.1,0.1,0.2,0.1,0.3,0.2C22.8,25.6,23.4,26,24.1,26.5z"/>
	<path class="st0" d="M34,47.7c0.2,0.3,0.4,0.7,0.5,1c0.2,0.5,0.4,0.4,0.8,0.2c0.5-0.3,1-0.6,1.5-0.8c0,0,0.1,0.1,0.1,0.1
		c-0.3,0.3-0.5,0.6-0.8,0.8c-0.4,0.2-0.8,0.4-1.2,0.6c-0.3,0.1-0.5,0.4-0.8,0c-0.1-0.1-0.4,0-0.5,0.1c-0.8,0.5-1.7,1.1-2.5,1.6
		c-0.1,0.1-0.2,0.3-0.2,0.5c-1.5,1-2.9,1.9-4.4,2.9c-0.1-0.2-0.2-0.3-0.3-0.5c0-0.1-0.1-0.3,0-0.3c0.4-0.3,0.1-0.5,0-0.8
		c-0.8-1.9-1.7-3.8-2.5-5.8c1.2-0.7,0.8-1.7,0.8-2.6c0-0.6-0.1-1.2-0.2-1.9c-0.3-1.8-1-4.1-2.2-5.5c0.4-0.5,0.7-1,1.1-1.6
		c0.9,0.5,1.7,1,2.5,1.5c1.9,1.4,4.7,1.6,6.9,0.3c0.3-0.2,0.6-0.2,0.8-0.6c0.5-1,1.6-0.9,2.5-0.9c0.1,0,0.2,0.1,0.3,0.2
		c0.2,0.3,0.4,0.6,0.6,1c-0.8,0.3-1.5,0.6-2.3,0.8c-0.4,0.2-0.9,0.2-1.3,0.3c-0.3,0.1-0.6,0.8-0.5,1.1c0.2,0.5,0.5,1,0.7,1.5
		c0,0.1-0.1,0.3-0.2,0.4c-0.7,0.3-1.3,0.6-2,1c0-0.2,0-0.3-0.1-0.5c0,0.4-0.2,0.7-0.5,0.8c-1.1,0.5-2.3,1.1-3.4,1.7
		c-0.3,0.2-0.5,0.5-0.7,0.8c-0.4,0.4,0,0.7,0.2,1c0.6,1.1,1.1,2.2,1.6,3.4c0.4,0.9,0.4,1,1.3,0.5c1.3-0.6,2.5-1.3,3.8-2
		C33.3,48,33.6,47.9,34,47.7z"/>
	<path class="st0" d="M16.4,49.6c-0.6-1.8-0.9-3.6-1-5.4c-0.1-1.7,0.1-3.3,0.7-4.9c0.4-1,1-1.8,1.9-2.3c1.1-0.7,2.8-0.5,3.7,0.6
		c0.9,1.1,1.4,2.4,1.7,3.7c0.2,0.9,0.3,1.9,0.5,2.9c0.1,0.4,0,0.9,0.1,1.3c0.1,0.8-0.3,1.3-0.8,1.8c-1.4,1.2-3,2-4.8,2.3
		C17.7,49.5,17,49.5,16.4,49.6z"/>
	<path class="st0" d="M42.1,46.5c0.4-0.2,0.7-0.8,1.5-0.5c0.4,0.2,1.2-0.3,1.4-0.8c0.3-0.7,0.3-1.4,0-2.1c0-0.1-0.3-0.2-0.3-0.1
		c-0.5,0.6-1.2,0.3-1.8,0.5c-1.8,0.5-3.3,1.3-4.5,2.7c-0.8,1-1.8,1.6-2.9,2.1c-0.1-0.4-0.2-0.7-0.4-1.1c0.8-0.4,1.6-0.7,2.4-1.1
		c-0.1-0.2-0.1-0.5-0.2-0.7c1.2-0.6,2.3-1.2,3.5-1.8c1.4-0.7,2.8-1.4,4.2-2.1c0.1-0.1,0.2-0.3,0.3-0.4c0-0.2,0-0.5,0-0.9
		c-2.8,1.4-5.5,2.8-8.2,4.2c-0.2-0.5-0.2-0.5,0.3-0.8c3.2-1.7,6.5-3.3,9.7-5c0.1-0.1,0.2-0.1,0.3-0.2c0,0,0-0.1-0.1-0.1
		c-3.5,1.8-6.9,3.5-10.4,5.2c0,0,0-0.1-0.1-0.1c0.7-0.4,1.5-0.8,2.2-1.1c2.3-1.2,4.5-2.3,6.8-3.5c0.1-0.1,0.3-0.2,0.3-0.3
		c0.1-0.7,0.5-1,1-1.2c0.3-0.1,0.4-0.3,0.3-0.6s-0.1-0.5,0.3-0.7c0.3-0.1,0.6-0.3,1-0.5c0.3-0.2,0.7-0.4,0.6-0.8
		c0-0.1,0.1-0.2,0.1-0.2c0.7-0.3,1.3-0.7,2-1c0.3,0.6,0.5,1.1,0.8,1.7c1.4-0.7,2.8-1.4,4.2-2.1c0.4-0.2,0.8-0.4,1.1-0.6
		c0.1,0,0.1-0.2,0.1-0.4c0,0,0,0,0,0c-0.7-1.1-0.5-1.5,0.6-2c0.3,1.4,0.6,2.7,0.8,4.1c-1.7,0.9-3.5,1.8-5.2,2.7
		c-1-1.5-1.3-1.5-2.2,0c-0.8-0.3-1.1-0.1-1.4,0.8c-0.3,0-0.6-0.1-0.7,0c-0.2,0.1-0.4,0.4-0.4,0.7c-0.1,0.6-0.1,1.2-0.1,1.9
		c0,0.3,0,0.5-0.3,0.7c-0.8,0.5-1.7,1.1-2.5,1.7c-0.3,0.2-0.4,0.4-0.3,0.8c0.2,0.7,0.2,1.3,0.1,2c-0.1,1.2-1.1,1.5-2.1,1.5
		C43.3,46.7,42.7,46.6,42.1,46.5z M47.1,40.9c0.6,0,1-0.4,1-1c0-0.5-0.5-0.9-0.9-0.9c-0.5,0-0.9,0.5-0.9,1
		C46.2,40.6,46.5,40.9,47.1,40.9z"/>
	<path class="st0" d="M18,31.7c-0.1-0.2-0.2-0.4-0.4-0.7c-0.6-0.9-0.8-1.9-0.3-2.9c0.4-0.8,0.5-0.9,1.3-0.7c2.6,0.8,5,1.8,7.3,3.2
		c1,0.6,2,1.4,2.9,2.1c0.6,0.4,0.8,0.9,0.6,1.6c-0.1,0.6-0.1,1.2-0.4,1.7c-0.4,1.2-1.6,1.5-2.5,0.8c-1.6-1.2-3.4-1.9-5.2-2.8
		c-1-0.5-2-1-3-1.4C18,32.5,17.8,32.3,18,31.7z M28.5,34.6c-0.2-0.4-0.2-0.8-0.4-1.1c-0.4-0.7-1.3-0.7-1.8-0.1s-0.4,1.8,0.1,2.4
		c0.4,0.5,1,0.6,1.5,0C28.2,35.5,28.3,35,28.5,34.6z"/>
	<path class="st0" d="M36.7,53.3c-0.7-1-1.5-2.1-2.3-3.2c0.7-0.3,1.3-0.6,2-1c1,1,1.5,2.3,2.1,3.7c-4.1,3.9-8.3,7.6-13.2,10.6
		c-1.7-1.2-2.8-2.7-3.1-4.8c0-0.2,0.1-0.5,0.2-0.6c1.1-0.9,2.1-1.7,3.2-2.5c1.6-1.1,3.2-2.1,4.8-3.2c0.1-0.1,0.2-0.1,0.4-0.2
		c0.2,0.3,0.4,0.7,0.5,0.9c-2.7,2-5.4,4.1-8.2,6.1c0.4,0.7,0.8,1.2,1.2,1.8c0.2,0.3,0.4,0.3,0.7,0.1c1.2-0.9,2.5-1.8,3.8-2.6
		c1.3-0.9,2.6-1.8,3.8-2.8c0.1-0.1,0.3-0.1,0.3-0.1c0.7,0.7,1.2,0.1,1.7-0.3c0.6-0.4,1-1,1.5-1.5C36.3,53.5,36.5,53.5,36.7,53.3z"/>
	<path class="st0" d="M17.8,49.8c2-0.3,3.8-1.1,5.4-2.4c0.9,2,1.7,4,2.6,6.1c-1.6,1.5-3.5,2.8-5.7,3.9
		C19.3,54.9,18.6,52.4,17.8,49.8z"/>
	<path class="st0" d="M29.8,34.2c0.1-1.5-1.2-1.8-1.9-2.6c0.3-0.2,0.6-0.3,0.9-0.5c0.8-0.7,1.7-1.3,2.5-2c1.5-1.4,3.2-1.6,5.1-1.1
		c1.7,0.4,3.1,1.5,4.5,2.3c-0.3,0.7-0.6,1.4-0.8,2.1c-0.1,0.5,0,1,0.2,1.5c0.2,0.6,0.8,0.7,1.7,0.6c-0.5,0.4-1,0.8-1.6,1.2
		c-0.2,0.1-0.5,0-0.7-0.3c-0.2-0.7-0.4-1.3-0.7-2c-0.7-1.5-2.3-2.6-3.8-2.5c-1.1,0.1-2,0.7-2.8,1.3C31.5,32.8,30.7,33.4,29.8,34.2z"
		/>
	<path class="st0" d="M36.2,53.1c-0.7,0.9-1.3,1.8-2.4,2.2c-0.3,0.1-0.5,0.1-0.7-0.2c-0.7-1.2-1.5-2.3-2.3-3.5c0.5-0.4,1-0.7,1.4-1
		c0.5-0.3,0.9-0.5,1.5-0.8C34.6,50.9,35.4,52,36.2,53.1z"/>
	<path class="st0" d="M39.7,46.7c0.8,1,1.3,2,1.6,3c0.2,0.7,0.4,1.5,0.6,2.2c0,0.1-0.1,0.4-0.2,0.4c-0.5,0.2-1,0.3-1.5,0.5
		c-0.3,0.1-0.6,0.1-0.8-0.3c-0.6-1.1-1.2-2.1-1.8-3.2c0-0.1-0.1-0.3,0-0.3C38.3,48.2,39,47.5,39.7,46.7z"/>
	<path class="st0" d="M31.3,59.6c2-1.7,3.9-3.4,5.8-5c-0.2,1.9-0.4,3.9-0.7,5.9C34.8,59.9,33.2,59.3,31.3,59.6z"/>
	<path class="st0" d="M35.3,40.6c0.1,0.7,0.1,1.2,0.2,1.9c-2.5,1.2-5,2.5-7.5,3.8c-0.4-0.5-0.7-1-1-1.5C29.8,43.4,32.5,42,35.3,40.6
		z M32.9,42.7L32.9,42.7c0.7,0.3,0.6-0.6,1.1-0.6c-0.4-0.2-6.2,2.7-6.4,3.1c0,0,0.1,0,0.1,0c1.6-0.8,3.1-1.8,4.9-2.2
		C32.8,42.9,32.8,42.8,32.9,42.7z"/>
	<path class="st0" d="M29.8,35.5c-0.1-0.7,0.2-1.1,0.7-1.5c1-0.7,1.8-1.5,2.8-2.1c2.3-1.7,4.7-0.2,5.4,1.5c0.3,0.6,0.5,1.3,0.7,2
		c-0.1,0-0.1,0.1-0.2,0.1c-0.3-0.3-0.6-0.5-0.8-0.8c-0.5-0.5-0.9-1-1.3-1.5c-0.7-0.7-1.5-0.8-2.4-0.4c-1.2,0.5-2.3,1.2-3.5,1.8
		C30.7,34.9,30.3,35.2,29.8,35.5z"/>
	<path class="st0" d="M39.5,38.4c-1,0.5-2,1.1-3.1,1.5c-0.6,0.3-1.2,0.5-1.9,0.7c-0.1,0-0.3,0-0.3-0.1c-0.3-0.5-0.6-1.1-1-1.7
		c0.8-0.3,1.5-0.7,2.3-0.9c0.9-0.3,1.9-0.6,2.8-0.9c0.3-0.1,0.4,0,0.5,0.2C39.1,37.6,39.3,38,39.5,38.4z M34.8,38.6
		c0,0,0,0.1,0.1,0.1c1.1-0.4,2.2-0.8,3.3-1.3c0-0.1,0-0.1-0.1-0.2C37,37.8,36,38.2,34.8,38.6z"/>
	<path class="st0" d="M18.8,27.1c-0.7-0.1-1.4-0.2-2-0.2c-0.1,0-0.3-0.1-0.3-0.2c-0.2-0.4-0.4-0.8-0.5-1.3c-0.1-1.2-0.2-2.4-0.2-3.6
		c0-0.7,0.6-1,1.3-0.7c0.9,0.3,1.2,1.1,1.3,2c0.2,1.3,0.3,2.6,0.4,3.9C18.9,27,18.8,27.1,18.8,27.1z M16.2,23.3
		c0.1,0.4,0.2,0.9,0.4,1.2c0.2,0.5,0.6,0.5,0.9,0.1c0.5-0.7,0.6-1.4,0.3-2.2c-0.2-0.6-0.8-0.7-1.2-0.1
		C16.4,22.5,16.3,22.9,16.2,23.3z"/>
	<path class="st0" d="M54.6,40.9c0,0.9-0.1,1.7-0.8,2.4c-1,0.9-2,1.7-3.4,1.9c-1.2,0.2-1.6-0.2-1.1-1.4c0.1-0.2,0.4-0.4,0.7-0.6
		c1.4-0.7,2.8-1.4,4.2-2.2C54.3,41,54.5,41,54.6,40.9z M53.3,42.8c0.1,0,0.2,0,0.2,0c0,0,0.1,0,0.2,0c0-0.1,0-0.3-0.1-0.4l0,0
		c0.1-0.2,0.2-0.4,0.4-0.6c0,0-0.1-0.1-0.1-0.1c-0.3,0.2-0.5,0.3-0.8,0.5c-0.3,0.2-0.6,0.4-0.4,0.8C52.9,42.9,53.2,42.8,53.3,42.8
		L53.3,42.8z"/>
	<path class="st0" d="M40.7,31.2c0.5-0.8,0.9-1.4,1.3-2.1c1.1,1.4,1.7,3,1.6,4.4c-0.6-0.3-0.7,0.5-1.2,0.4c0.5-0.7,0.2-1.3,0.2-2
		c-0.1-0.4-0.6-0.8-1.1-0.8C41.2,31.1,41,31.2,40.7,31.2z"/>
	<path class="st0" d="M19.8,27.5c-0.2-0.1-0.4-0.1-0.5-0.1c-0.2-1.6-0.4-3.2-0.6-4.8c-0.2-1.2-1-1.9-2.2-2c0.2-0.4,0.6-0.3,0.9-0.2
		c1.2,0.2,1.7,1.1,1.9,2.2c0.2,1.5,0.4,3,0.5,4.5C19.7,27.2,19.7,27.3,19.8,27.5z"/>
	<path class="st0" d="M36.1,36c0.7-0.4,1.3-0.7,2-1.1c0.3,0.2,0.6,0.5,0.8,0.8c-0.1,0.3-0.2,0.5-0.4,0.8c0,0.1-0.1,0.1-0.2,0.1
		c-0.1,0-0.3,0.1-0.4,0.1C36.8,37.1,36.8,37.1,36.1,36z"/>
	<path class="st0" d="M17.5,27.3c-1.1,1.3-1,2.8-0.2,3.9c0.2,0.2,0.2,0.6,0.3,0.9c-1-0.6-1.5-1.5-1.6-2.6c-0.1-0.7,0.1-1.4,0.5-2
		C16.8,27.1,17,27,17.5,27.3z"/>
	<path class="st0" d="M43.6,34.8c0.2,0.5,0.3,0.9,0.5,1.3c-1,0.5-1.9,1-2.9,1.4c-0.2-0.3-0.3-0.6-0.5-1c0.7-0.1,1.3-0.1,1.8-0.4
		C42.9,35.8,43.2,35.2,43.6,34.8z"/>
	<path class="st0" d="M55.4,37.7c-0.3-0.4-0.5-0.7-0.7-1.1c0.8-0.4,1.8-0.8,2.7-1.2c-0.1,0.3-0.1,0.8-0.2,1.3
		C56.7,37,56,37.3,55.4,37.7z"/>
	<path class="st0" d="M32.9,45.9c-0.1-0.4-0.2-0.7-0.3-1.1c0.3-0.1,0.5-0.1,0.8-0.2c0.1,0,0.2,0,0.2,0c0-0.5,0.5-0.4,0.8-0.6
		c0.2-0.2,0.5-0.3,0.7,0c0.2,0.3,0.1,0.8-0.2,0.9C34.3,45.2,33.6,45.6,32.9,45.9z"/>
	<path class="st0" d="M29.2,47.5c-0.1-0.2-0.3-0.4-0.3-0.6c0-0.1,0.1-0.4,0.2-0.4c0.7-0.4,1.4-0.8,2.1-1.1c0.4,0.6,0.5,1-0.3,1.2
		C30.4,46.9,29.8,47.2,29.2,47.5z"/>
	<path class="st0" d="M43.2,33.7c0.3,0.9-0.6,2-1.6,2.2c0.1-0.1,0.1-0.2,0.2-0.3c-0.4,0.1-0.8,0.3-1.2,0.4c0-0.1-0.1-0.1-0.1-0.2
		C41.4,35.1,42.3,34.4,43.2,33.7z"/>
	<path class="st0" d="M24.2,62.7c-0.5,0.2-0.9,0.5-1.4,0.8c0-0.7-0.1-1.3-0.1-2c0,0,0.1-0.1,0.1-0.1C23.3,61.9,23.8,62.3,24.2,62.7z
		"/>
	<path class="st0" d="M27.7,46.5c-0.2,0.2-0.4,0.5-0.6,0.7c-0.3-0.5-0.6-1-0.9-1.5c0.1-0.2,0.3-0.4,0.5-0.7
		C27.1,45.5,27.4,46,27.7,46.5z"/>
	<path class="st0" d="M32.7,55.1c-0.2,0.1-0.3,0.2-0.5,0.4c-0.4-0.6-0.8-1.1-1.2-1.7c0.2-0.3,0.5-0.5,0.8,0
		C32.1,54.2,32.4,54.6,32.7,55.1z"/>
	<path class="st0" d="M26.9,56.6c0.5,0.4,0.9,0.8,1.4,1.3c-0.8,0.5-0.8,0.5-1.6-0.6C26.5,56.9,26.7,56.8,26.9,56.6z"/>
	<path class="st0" d="M30.7,53.9c0.2,0.2,0.4,0.4,0.6,0.7c0.2,0.3,0.4,0.7,0.7,1c-0.2,0.1-0.3,0.2-0.5,0.3c-0.3-0.5-0.7-1-1-1.4
		C30.3,54.3,30.4,54.1,30.7,53.9z"/>
	<path class="st0" d="M36.3,61.2c-1.9-1.1-3.9-1.8-6.1-0.8c0.6-0.7,2.8-0.8,4.4-0.2C36.3,60.8,36.3,60.8,36.3,61.2z"/>
	<path class="st0" d="M28,55.8c0.4-0.5,0.6-0.4,1.6,1c-0.6,0.4-0.6,0.4-1-0.2C28.5,56.3,28.3,56,28,55.8z"/>
	<path class="st0" d="M27.7,56c0.5,0.5,0.8,0.9,1.2,1.3c-0.4,0.3-0.6,0.3-0.9-0.1c-0.2-0.3-0.5-0.6-0.8-0.9
		C27.4,56.2,27.6,56.1,27.7,56z"/>
	<path class="st0" d="M43.4,45.7c1.5-1.3,1.5-1.4,1-2.1c0.1-0.1,0.2-0.2,0.3-0.2C45.1,45,44.4,46,43.4,45.7z"/>
	<path class="st0" d="M30,54.4c0.4,0.5,0.7,0.9,1.1,1.3c0,0,0,0.1,0,0.2c-0.2,0-0.5,0-0.6-0.1C29.7,55.1,29.6,54.9,30,54.4z"/>
	<path class="st0" d="M30.4,56.2c-0.4,0.3-0.6,0.2-0.9-0.1c-0.2-0.2-0.3-0.5-0.5-0.7c0-0.1,0-0.2,0-0.3c0.1,0,0.2,0,0.3,0
		C29.6,55.4,30,55.8,30.4,56.2z"/>
	<path class="st0" d="M26.2,57.2c0.5,0.5,0.9,0.9,1.4,1.4c-0.4,0-0.7,0.1-0.8,0C26.4,58.3,26,57.9,26.2,57.2z"/>
	<path class="st0" d="M25,60.3c-1.1,0.2-0.9-0.8-1.3-1.1c0.2-0.1,0.3-0.2,0.4-0.3C24.4,59.3,24.7,59.7,25,60.3z"/>
	<path class="st0" d="M32.6,35.6c0.3,0.1,0.7,0.2,1.1,0.4c-0.4,0.3-0.7,0.6-1.1,1C32.6,36.5,32.6,36.1,32.6,35.6z"/>
	<path class="st0" d="M26.7,59c-0.2,0.1-0.3,0.1-0.5,0.2c-0.3-0.5-0.5-1-0.8-1.4c0,0,0.1-0.1,0.1-0.1C26,58,26.3,58.5,26.7,59z"/>
	<path class="st0" d="M35,47.2c-0.2,0.5,0.5,1,0,1.5c-0.2-0.4-0.4-0.8-0.6-1.2C34.5,47.5,34.6,47.4,35,47.2z"/>
	<path class="st0" d="M26,59.5c-0.5,0.1-1.1-0.8-1-1.5C25.4,58.5,25.7,59,26,59.5z"/>
	<path class="st0" d="M24.6,58.5c0.3,0.4,0.6,0.8,0.9,1.3c-0.1,0-0.3,0.1-0.4,0.1c-0.3-0.4-0.5-0.9-0.8-1.3
		C24.5,58.6,24.5,58.5,24.6,58.5z"/>
	<path class="st0" d="M47.2,36.8c-0.2,0.1-0.3,0.2-0.4,0.3c0,0-0.1,0-0.2,0.1c0.2-0.3,0.3-0.6,0.4-0.9
		C47.1,36.5,47.1,36.6,47.2,36.8z"/>
	<path d="M23.1,8.5c-1.3,1.3-2.5,2.8-3.4,4.5C20.4,11.1,21.7,9.7,23.1,8.5z"/>
	<path d="M24.1,26.5c-0.7-0.4-1.4-0.8-2-1.2c-0.1-0.1-0.2-0.1-0.3-0.2c-0.7-0.4-0.7-0.5-0.6-1.3c0-0.4,0-0.8,0-1.1
		c0-0.2,0-0.3,0-0.7c0.8,1.1,1.9,1.6,3,2c0.1,0.1,0.3,0.3,0.3,0.5C24.4,25.1,24.3,25.7,24.1,26.5z"/>
	<path d="M47.1,40.9c-0.5,0-0.9-0.3-0.9-0.9c0-0.5,0.5-1,0.9-1c0.5,0,0.9,0.5,0.9,0.9C48.1,40.5,47.7,40.9,47.1,40.9z"/>
	<path d="M28.5,34.6c-0.2,0.4-0.4,0.9-0.6,1.3c-0.4,0.5-1,0.5-1.5,0c-0.5-0.6-0.5-1.8-0.1-2.4c0.4-0.6,1.4-0.6,1.8,0.1
		C28.3,33.8,28.4,34.2,28.5,34.6z"/>
	<path d="M32.9,42.7c0,0.1-0.1,0.2-0.2,0.2c-1.8,0.5-3.3,1.5-4.9,2.2c0,0-0.1,0-0.1,0c0.2-0.4,6-3.3,6.4-3.1
		C33.5,42,33.6,42.9,32.9,42.7C32.9,42.7,32.9,42.7,32.9,42.7z"/>
	<path d="M32.9,42.7L32.9,42.7C32.9,42.7,32.9,42.7,32.9,42.7z"/>
	<path d="M34.8,38.6c1.1-0.4,2.2-0.9,3.3-1.3c0,0.1,0,0.1,0.1,0.2c-1.1,0.4-2.2,0.8-3.3,1.3C34.9,38.7,34.9,38.7,34.8,38.6z"/>
	<path d="M16.2,23.3c0.1-0.4,0.2-0.8,0.4-1c0.3-0.5,1-0.4,1.2,0.1c0.3,0.8,0.1,1.5-0.3,2.2c-0.3,0.4-0.6,0.4-0.9-0.1
		C16.4,24.1,16.3,23.7,16.2,23.3z"/>
	<path d="M53.4,42.8c-0.2,0-0.4,0.1-0.7,0.1c-0.2-0.4,0.1-0.6,0.4-0.8c0.3-0.2,0.5-0.3,0.8-0.5c0,0,0.1,0.1,0.1,0.1
		c-0.1,0.2-0.2,0.4-0.4,0.6c-0.1,0.1-0.2,0.1-0.4,0.2c0,0,0,0.1,0,0.1C53.3,42.7,53.3,42.7,53.4,42.8z"/>
	<path class="st0" d="M53.3,42.5c0.1-0.1,0.2-0.1,0.4-0.2l0,0c0,0.1,0,0.3,0.1,0.4c0,0-0.1,0-0.2,0c-0.1,0-0.1-0.1-0.2-0.1l0,0
		C53.4,42.6,53.3,42.5,53.3,42.5z"/>
	<path d="M53.7,42.7c0-0.1,0-0.3-0.1-0.4C53.7,42.5,53.7,42.6,53.7,42.7z"/>
	<path class="st0" d="M53.3,42.8L53.3,42.8c0,0,0-0.1-0.1-0.2C53.3,42.6,53.4,42.7,53.3,42.8l0.1-0.1C53.4,42.7,53.4,42.7,53.3,42.8
		z"/>
	<path d="M53.3,42.8c0,0,0-0.1,0.1-0.1c0.1,0,0.1,0.1,0.2,0.1C53.5,42.8,53.4,42.8,53.3,42.8z"/>
	<path d="M53.4,42.7c0,0-0.1,0-0.1-0.1c0,0,0-0.1,0-0.1C53.3,42.5,53.4,42.6,53.4,42.7z"/>
</g>
<path class="st1" d="M41.7,47.6v5.5c0,0,14.3,0,16.2,0s4.3-1.7,4.3-4.6c0-1.2,0.4-1.9-0.9-3.5l-2.1-2.5c-1.2-1.1,0.1-1.1,1.1-1.1
	c0.5,0,6.8,0,6.8,0v11.6h5.4V41.5h7.3v-5H56.2c-2.9,0-4.3,2.8-4.2,4.2s0.3,3.2,2.7,5.4c2.2,2-1.1,1.4-1.4,1.4
	C51.7,47.6,41.7,47.6,41.7,47.6L41.7,47.6z"/>
<path class="st1" d="M91.9,36.5h-8.8l-4.9,16.6h5.5l0.9-2.3h5.8l0.9,2.3h5.3L91.9,36.5L91.9,36.5z"/>
<path class="st1" d="M113.9,47.6c-2.1,0-2.1-0.8-2.1-0.8c1.8,0,3.4-2.6,3.4-5.3s-2.6-5-4.7-5c-2.1,0-11.8,0-11.8,0v16.6h6v-5.5
	c0,0,2.6,3,3.9,4.2c1.3,1.2,1.4,1.3,3.2,1.3c1.8,0,9.4,0,9.4,0v-5.5C121.2,47.6,116,47.6,113.9,47.6L113.9,47.6z"/>
<polygon class="st1" points="41.7,55.3 47.8,55.3 49.4,60.8 50.8,55.3 57.2,55.3 58.9,60.8 60.6,55.3 65.9,55.3 61,71.9 56.1,71.9 
	54,64 51.6,71.9 46.6,71.9 "/>
<path class="st1" d="M78.5,55.4h-8.8L64.8,72h5.5l0.9-2.3h5.8l0.8,2.3h5.3L78.5,55.4L78.5,55.4z"/>
<path class="st1" d="M114,60.3c-1,0-2.1,0.1-0.9,1.2l2.1,2.5c1.4,1.5,1.3,2.2,1.3,3.3c0,2.9-2.8,4.6-4.7,4.6L98.7,72
	c-1.8,0-1.9-0.1-3.2-1.3s-3.9-4.2-3.9-4.2V72h-6V55.4c0,0,9.7,0,11.8,0s4.7,2.3,4.7,5s-1.6,5.3-3.4,5.3c0,0,0.8,0.8,2.1,0.8
	s6.4,0,6.4,0c0.3,0,3.6,0.6,1.4-1.4c-2.4-2.2-2.7-4-2.7-5.4c-0.1-1.4,1.2-4.3,4.1-4.3h11.2v5L114,60.3L114,60.3z"/>
<rect x="98.2" y="73.9" class="st2" width="23.8" height="15.1"/>
<g class="st3">
	<path class="st0" d="M98.6,74H99c0,0,0.1,0,0.1,0.1v7.2c0,0,0,0.1-0.1,0.1h-0.4c0,0-0.1,0-0.1-0.1L98.6,74C98.5,74,98.6,74,98.6,74
		z"/>
	<path class="st0" d="M99.7,74h0.4c0,0,0.1,0,0.1,0.1v1.2c0,0,0,0.1-0.1,0.1h-0.4c0,0-0.1,0-0.1-0.1L99.7,74
		C99.6,74,99.6,74,99.7,74z M99.7,76.2h0.4c0,0,0.1,0,0.1,0.1v5c0,0,0,0.1-0.1,0.1h-0.4c0,0-0.1,0-0.1-0.1L99.7,76.2
		C99.6,76.2,99.6,76.2,99.7,76.2z"/>
	<path class="st0" d="M100.8,73.9h0.4c0,0,0.1,0,0.1,0.1v3.3c0.6-0.7,1.2-1,2-1h0.1c1,0,1.8,0.5,2.3,1.6c0.1,0.2,0.2,0.5,0.2,0.9
		c0,1-0.5,1.7-1.4,2.3c-0.3,0.2-0.7,0.3-1,0.3h-0.2c-1,0-1.8-0.6-2.3-1.7c-0.1-0.3-0.1-0.6-0.1-0.8L100.8,73.9
		C100.7,74,100.8,73.9,100.8,73.9z M101.2,78.8c0,0.9,0.5,1.6,1.5,2c0.2,0.1,0.4,0.1,0.5,0.1h0.2c0.7,0,1.3-0.4,1.8-1.2
		c0.1-0.3,0.2-0.5,0.2-0.7v-0.1c0,0,0,0,0,0l0-0.1v-0.1c0-0.8-0.4-1.4-1.3-1.8c-0.3-0.1-0.5-0.1-0.8-0.1c-0.8,0-1.4,0.4-1.8,1.2
		C101.3,78.2,101.2,78.5,101.2,78.8z"/>
	<path class="st0" d="M108,76.2L108,76.2l0,0.4c0,0-0.2,0.1-0.6,0.2c-0.4,0.3-0.7,0.9-0.7,1.7v2.7c0,0,0,0.1-0.1,0.1h-0.4
		c0,0-0.1,0-0.1-0.1v-2.8c0-1.1,0.3-1.8,1-2.2C107.6,76.2,107.8,76.2,108,76.2z"/>
	<path class="st0" d="M110.8,76.2h0.2c1,0,1.7,0.5,2.3,1.6c0.1,0.3,0.1,0.6,0.1,0.8v2.6c0,0,0,0.1-0.1,0.1h-0.4c0,0-0.1,0-0.1-0.1
		v-1h0c-0.5,0.7-1.2,1-2,1H111c-1.1,0-1.9-0.6-2.4-1.7c-0.1-0.2-0.1-0.5-0.1-0.8v-0.1c0-1,0.5-1.8,1.6-2.3
		C110.3,76.3,110.6,76.2,110.8,76.2z M108.9,78.7L108.9,78.7c0,1,0.5,1.6,1.4,2c0.2,0.1,0.4,0.1,0.7,0.1c0.9,0,1.5-0.5,1.9-1.5
		c0.1-0.2,0.1-0.4,0.1-0.6v-0.1c0-0.8-0.4-1.4-1.3-1.8c-0.2-0.1-0.5-0.1-0.7-0.1h-0.1c-0.9,0-1.6,0.5-2,1.5
		C108.9,78.4,108.9,78.5,108.9,78.7z"/>
	<path class="st0" d="M115.7,76.2L115.7,76.2l0,0.4c0,0-0.2,0.1-0.6,0.2c-0.4,0.3-0.7,0.9-0.7,1.7v2.7c0,0,0,0.1-0.1,0.1h-0.4
		c0,0-0.1,0-0.1-0.1v-2.8c0-1.1,0.3-1.8,1-2.2C115.3,76.2,115.5,76.2,115.7,76.2z"/>
	<path class="st0" d="M116.4,76.2h0.4c0,0,0.1,0,0.1,0.1v2.5c0,1.1,0.5,1.8,1.5,2.1c0.3,0,0.4,0,0.5,0c0.9,0,1.5-0.4,1.8-1.3
		c0.1-0.3,0.1-0.6,0.1-1v-2.3c0,0,0-0.1,0.1-0.1h0.4c0,0,0.1,0,0.1,0.1v5.6c0,0.7-0.3,1.4-0.8,2c-0.4,0.4-1,0.6-1.6,0.6
		c-1.1,0-1.8-0.4-2.2-1.3c-0.1-0.2-0.1-0.3-0.1-0.4c0.1,0,0.3-0.1,0.4-0.1c0.1,0.4,0.4,0.8,0.7,1c0.4,0.2,0.8,0.3,1.3,0.3
		c0.9,0,1.4-0.5,1.8-1.5c0.1-0.2,0.1-0.4,0.1-0.7v-1.4h0c-0.4,0.6-1.1,1-2,1c-1.1,0-1.8-0.5-2.2-1.4c-0.1-0.4-0.2-0.8-0.2-1.1
		L116.4,76.2C116.4,76.2,116.4,76.2,116.4,76.2z"/>
</g>
</svg>
